<?xml version="1.0" encoding="UTF-8" standalone="no"?>
<!-- Created with Inkscape (http://www.inkscape.org/) -->

<svg
   width="47.002502mm"
   height="32.834057mm"
   viewBox="0 0 47.002502 32.834056"
   version="1.1"
   id="svg1"
   xml:space="preserve"
   inkscape:export-filename="beret.svg"
   inkscape:export-xdpi="96"
   inkscape:export-ydpi="96"
   inkscape:version="1.4.2 (f4327f4, 2025-05-13)"
   sodipodi:docname="style_canvas.svg"
   xmlns:inkscape="http://www.inkscape.org/namespaces/inkscape"
   xmlns:sodipodi="http://sodipodi.sourceforge.net/DTD/sodipodi-0.dtd"
   xmlns:xlink="http://www.w3.org/1999/xlink"
   xmlns="http://www.w3.org/2000/svg"
   xmlns:svg="http://www.w3.org/2000/svg"><sodipodi:namedview
     id="namedview1"
     pagecolor="#505050"
     bordercolor="#eeeeee"
     borderopacity="1"
     inkscape:showpageshadow="0"
     inkscape:pageopacity="0"
     inkscape:pagecheckerboard="0"
     inkscape:deskcolor="#d1d1d1"
     inkscape:document-units="mm"
     inkscape:zoom="4"
     inkscape:cx="78.75"
     inkscape:cy="204.5"
     inkscape:window-width="1920"
     inkscape:window-height="1017"
     inkscape:window-x="630"
     inkscape:window-y="1432"
     inkscape:window-maximized="1"
     inkscape:current-layer="layer1"
     showguides="true"><inkscape:page
       x="-2.6414701e-16"
       y="0"
       width="47.002502"
       height="32.834057"
       id="page2"
       margin="0"
       bleed="0" /></sodipodi:namedview><defs
     id="defs1"><pattern
       inkscape:collect="always"
       xlink:href="#semicircles 1"
       preserveAspectRatio="xMidYMid"
       id="pattern27351"
       patternTransform="matrix(0.05,0,0,0.05,830.79595,198.12644)"
       x="0"
       y="0" /><pattern
       patternUnits="userSpaceOnUse"
       width="232.98435"
       height="232.9844"
       patternTransform="translate(830.79595,198.12644) scale(0.3)"
       preserveAspectRatio="xMidYMid"
       style="fill:#9ed0f7"
       id="semicircles 1"
       inkscape:label="Halbkreise 1"
       inkscape:collect="always"
       inkscape:isstock="true"><path
         id="path1-2"
         style="stroke-width:4.8561;stroke-linecap:square;paint-order:stroke markers fill;stop-color:#000000"
         d="M 1e-5,116.4922 C 1.9e-4,84.32384 26.07774,58.24628 58.2461,58.2461 c 32.16836,1.8e-4 58.24591,26.07774 58.24609,58.2461 z M 232.98435,1e-5 c -32.1683,1.8e-4 -58.2459,26.07773 -58.2461,58.24609 2e-4,32.16836 26.0778,58.24591 58.2461,58.24609 z M 0,116.49221 c 32.16836,1.8e-4 58.24592,26.07773 58.2461,58.24609 C 58.24592,206.90666 32.16836,232.98421 0,232.98439 Z m 116.49219,-1e-5 c 1.8e-4,32.16836 26.07773,58.24592 58.24606,58.2461 32.1684,-1.8e-4 58.2459,-26.07774 58.2461,-58.2461 z M 1e-5,0 C 1.9e-4,32.16836 26.07774,58.24592 58.2461,58.2461 90.41446,58.24592 116.49201,32.16836 116.49219,0 Z m 116.49217,1e-5 c 32.16836,1.8e-4 58.24587,26.07773 58.24607,58.24609 -2e-4,32.16836 -26.07771,58.24591 -58.24607,58.24609 z m 2e-5,116.4922 c -32.16836,1.8e-4 -58.24592,26.07773 -58.2461,58.24609 1.8e-4,32.16836 26.07774,58.24591 58.2461,58.24609 z m -1e-5,116.49219 c 1.8e-4,-32.16836 26.07773,-58.24592 58.24606,-58.2461 32.1684,1.8e-4 58.2459,26.07774 58.2461,58.2461 z" /></pattern><linearGradient
       id="swatch27341"
       inkscape:swatch="solid"><stop
         style="stop-color:#9391ff;stop-opacity:1;"
         offset="0"
         id="stop27341" /></linearGradient></defs><g
     inkscape:label="Ebene 1"
     inkscape:groupmode="layer"
     id="layer1"
     transform="translate(-103.57223,-154.68802)"><path
       style="display:inline;fill:#d1ebff;fill-opacity:1;stroke-width:7.99999;stroke-linejoin:round;stroke-miterlimit:7.6;paint-order:markers stroke fill"
       d="m 113.63508,156.37181 -10.05602,8.06821 c -0.0947,8.77428 0.73807,6.60262 6.12716,8.76977 l 4.0224,-4.30303 -0.74835,18.61532 c 7.12956,-1.65174 16.484,-1.74529 28.0633,-0.28064 l -0.74835,-19.08304 5.7062,2.61924 c 3.64823,-0.71717 5.11375,-3.8665 4.39658,-9.44798 l -10.47696,-6.64164 c -9.26591,6.0277 -18.02789,6.58897 -26.28596,1.68379 z"
       id="path4-8"
       sodipodi:nodetypes="ccccccccccc"
       inkscape:export-filename="baguettestyles\shirts\shapes.svg"
       inkscape:export-xdpi="96"
       inkscape:export-ydpi="96"
       inkscape:transform-center-x="-28.905199"
       inkscape:transform-center-y="-13.096207"
       transform="translate(-1.1041666e-6)" /><path
       style="display:inline;opacity:1;fill:url(#pattern27351);fill-opacity:1;stroke-width:7.99999;stroke-linejoin:round;stroke-miterlimit:7.6;paint-order:markers stroke fill"
       d="m 113.63508,156.37181 -10.05602,8.06821 c -0.0947,8.77428 0.73807,6.60262 6.12716,8.76977 l 4.0224,-4.30303 -0.74835,18.61532 c 7.12956,-1.65174 16.484,-1.74529 28.0633,-0.28064 l -0.74835,-19.08304 5.7062,2.61924 c 3.64823,-0.71717 5.11375,-3.8665 4.39658,-9.44798 l -10.47696,-6.64164 c -9.26591,6.0277 -18.02789,6.58897 -26.28596,1.68379 z"
       id="path4"
       sodipodi:nodetypes="ccccccccccc"
       inkscape:export-filename="baguettestyles\shirts\shapes.svg"
       inkscape:export-xdpi="96"
       inkscape:export-ydpi="96" /></g></svg>
