<?xml version="1.0" encoding="UTF-8" standalone="no"?>
<!-- Created with Inkscape (http://www.inkscape.org/) -->

<svg
   width="47.002853mm"
   height="32.834305mm"
   viewBox="0 0 47.002853 32.834304"
   version="1.1"
   id="svg1"
   xml:space="preserve"
   inkscape:export-filename="beret.svg"
   inkscape:export-xdpi="96"
   inkscape:export-ydpi="96"
   inkscape:version="1.4.2 (f4327f4, 2025-05-13)"
   sodipodi:docname="style_canvas.svg"
   xmlns:inkscape="http://www.inkscape.org/namespaces/inkscape"
   xmlns:sodipodi="http://sodipodi.sourceforge.net/DTD/sodipodi-0.dtd"
   xmlns="http://www.w3.org/2000/svg"
   xmlns:svg="http://www.w3.org/2000/svg"><sodipodi:namedview
     id="namedview1"
     pagecolor="#505050"
     bordercolor="#eeeeee"
     borderopacity="1"
     inkscape:showpageshadow="0"
     inkscape:pageopacity="0"
     inkscape:pagecheckerboard="0"
     inkscape:deskcolor="#d1d1d1"
     inkscape:document-units="mm"
     inkscape:zoom="5.6568543"
     inkscape:cx="76.544309"
     inkscape:cy="247.84093"
     inkscape:window-width="2560"
     inkscape:window-height="1377"
     inkscape:window-x="-8"
     inkscape:window-y="-8"
     inkscape:window-maximized="1"
     inkscape:current-layer="layer1"><inkscape:page
       x="-2.4366329e-16"
       y="0"
       width="47.002853"
       height="32.834305"
       id="page2"
       margin="0"
       bleed="0" /></sodipodi:namedview><defs
     id="defs1" /><g
     inkscape:label="Ebene 1"
     inkscape:groupmode="layer"
     id="layer1"
     transform="translate(-103.57201,-154.68777)"><path
       style="display:inline;opacity:1;fill:#ffffff;fill-opacity:1;stroke-width:7.99999;stroke-linejoin:round;stroke-miterlimit:7.6;paint-order:markers stroke fill"
       d="m 113.63508,156.37181 -10.05602,8.06821 c -0.0947,8.77428 0.73807,6.60262 6.12716,8.76977 l 4.0224,-4.30303 -0.74835,18.61532 c 7.12956,-1.65174 16.484,-1.74529 28.0633,-0.28064 l -0.74835,-19.08304 5.7062,2.61924 c 3.64823,-0.71717 5.11375,-3.8665 4.39658,-9.44798 l -10.47696,-6.64164 c -9.26591,6.0277 -18.02789,6.58897 -26.28596,1.68379 z"
       id="path4"
       sodipodi:nodetypes="ccccccccccc"
       inkscape:export-filename="red.svg"
       inkscape:export-xdpi="96"
       inkscape:export-ydpi="96" /><path
       id="path34"
       style="display:inline;opacity:1;fill:#e4e4e4;fill-opacity:1;stroke-width:7.99999;stroke-linejoin:round;stroke-miterlimit:7.6;paint-order:markers stroke fill"
       d="m 139.9208,154.68777 c -0.18615,0.12109 -0.37184,0.2404 -0.55759,0.35708 l -1.11621,31.86834 c 0.40942,0.0442 0.82178,0.0907 1.23714,0.13901 l 1.15496,-31.90916 z m -2.05104,1.25005 c -0.43547,0.24721 -0.86955,0.4822 -1.30276,0.70487 l -1.05058,30.00282 c 0.40961,0.036 0.82221,0.0743 1.23817,0.11472 z m 4.19871,0.11162 -0.44545,12.71809 1.24282,0.57051 0.45217,-12.4964 z m -28.89074,0.68937 -1.31413,1.05471 -0.47697,13.61829 1.31103,-1.4025 z m 1.45624,0.19843 -1.0666,30.45344 c 0.40979,-0.0886 0.82657,-0.17203 1.25057,-0.25063 l 1.07022,-29.57132 c -0.41938,-0.19672 -0.83735,-0.40718 -1.25419,-0.63149 z m 20.44423,0.42427 c -0.43312,0.1956 -0.86521,0.37854 -1.29604,0.54932 l -0.99891,28.52487 c 0.40978,0.0269 0.82312,0.0562 1.23972,0.0879 z m 9.67125,0.38705 -0.42943,12.25714 1.24126,0.56999 0.43564,-12.03596 z m -27.419,0.44029 -1.00511,28.69695 c 0.41001,-0.0624 0.82618,-0.12038 1.2485,-0.17415 l 1.01545,-28.07219 c -0.42091,-0.13661 -0.84044,-0.28692 -1.25884,-0.45061 z m 14.96756,0.26303 c -0.43087,0.14307 -0.86026,0.27326 -1.28881,0.39119 l -0.96118,27.44639 c 0.40992,0.0167 0.82346,0.036 1.24075,0.0579 z m -21.94233,0.55139 -1.31206,1.05213 -0.44597,12.74341 c 0.34621,0.11789 0.71512,0.25265 1.10846,0.41082 l 0.14056,-0.15037 z m 9.68468,0.0522 -0.96221,27.48566 c 0.40995,-0.041 0.82562,-0.0782 1.24643,-0.11162 l 0.9803,-27.10015 c -0.42282,-0.0781 -0.84415,-0.16914 -1.26452,-0.27389 z m 9.49038,0.14573 c -0.42871,0.0895 -0.85625,0.16643 -1.28261,0.23047 l -0.93793,26.78442 c 0.40987,0.005 0.82391,0.013 1.24179,0.0238 z m 17.89968,0.24701 -0.38654,11.03654 c 0.477,-0.18013 0.90589,-0.41496 1.28623,-0.7028 l 0.34571,-9.54412 z m -24.66671,0.0971 -0.93793,26.78235 c 0.41014,-0.0232 0.82503,-0.043 1.24489,-0.0594 l 0.96325,-26.6206 c -0.42469,-0.021 -0.84794,-0.0551 -1.27021,-0.10232 z m 4.01216,0.0568 c -0.42665,0.0349 -0.85214,0.0571 -1.27641,0.0661 l -0.92966,26.556 c 0.40994,-0.008 0.8241,-0.0126 1.24282,-0.0145 z m 23.33501,1.54564 -0.23203,6.63732 c 0.69768,-1.56722 0.87095,-3.71899 0.51935,-6.45542 z m -42.57777,0.11989 -1.30896,1.05006 -0.33848,9.66763 c 0.36035,0.11764 0.77348,0.22843 1.24643,0.36225 z m -2.82205,2.26394 -1.13223,0.90847 c -0.0445,4.1212 0.11605,5.82753 0.8568,6.70295 z m 36.29701,22.79913 -0.0315,0.90227 c 0.0224,0.003 0.0448,0.005 0.0672,0.008 z"
       transform="translate(-1.1041666e-6)"
       inkscape:export-filename="baguettestyles\shirts\anzug.svg"
       inkscape:export-xdpi="96"
       inkscape:export-ydpi="96" /><path
       style="display:inline;fill:#690505;fill-opacity:1;stroke:none;stroke-width:1.285;stroke-linecap:butt;stroke-linejoin:round;stroke-miterlimit:7.6;stroke-opacity:1;paint-order:markers stroke fill"
       d="m 126.02863,159.53605 -2.09109,2.09109 1.94963,1.94963 -2.22791,11.43121 1.85209,2.61276 2.14974,-2.54662 -1.2237,-11.4763 1.88516,-2.08359 z"
       id="path6" /></g></svg>
