<?xml version="1.0" encoding="UTF-8" standalone="no"?>
<!-- Created with Inkscape (http://www.inkscape.org/) -->

<svg
   width="47.002502mm"
   height="32.834057mm"
   viewBox="0 0 47.002502 32.834056"
   version="1.1"
   id="svg1"
   xml:space="preserve"
   inkscape:export-filename="beret.svg"
   inkscape:export-xdpi="96"
   inkscape:export-ydpi="96"
   inkscape:version="1.4.2 (f4327f4, 2025-05-13)"
   sodipodi:docname="style_canvas.svg"
   xmlns:inkscape="http://www.inkscape.org/namespaces/inkscape"
   xmlns:sodipodi="http://sodipodi.sourceforge.net/DTD/sodipodi-0.dtd"
   xmlns="http://www.w3.org/2000/svg"
   xmlns:svg="http://www.w3.org/2000/svg"><sodipodi:namedview
     id="namedview1"
     pagecolor="#505050"
     bordercolor="#eeeeee"
     borderopacity="1"
     inkscape:showpageshadow="0"
     inkscape:pageopacity="0"
     inkscape:pagecheckerboard="0"
     inkscape:deskcolor="#d1d1d1"
     inkscape:document-units="mm"
     inkscape:zoom="4"
     inkscape:cx="64.749999"
     inkscape:cy="164.75"
     inkscape:window-width="1920"
     inkscape:window-height="1017"
     inkscape:window-x="630"
     inkscape:window-y="1432"
     inkscape:window-maximized="1"
     inkscape:current-layer="layer1"><inkscape:page
       x="-2.6414696e-16"
       y="0"
       width="47.002502"
       height="32.834057"
       id="page2"
       margin="0"
       bleed="0" /></sodipodi:namedview><defs
     id="defs1" /><g
     inkscape:label="Ebene 1"
     inkscape:groupmode="layer"
     id="layer1"
     transform="translate(-103.57223,-154.68802)"><path
       style="display:inline;opacity:1;fill:#ffffff;fill-opacity:1;stroke-width:7.99999;stroke-linejoin:round;stroke-miterlimit:7.6;paint-order:markers stroke fill"
       d="m 113.63508,156.37181 -10.05602,8.06821 c -0.0947,8.77428 0.73807,6.60262 6.12716,8.76977 l 4.0224,-4.30303 -0.74835,18.61532 c 7.12956,-1.65174 16.484,-1.74529 28.0633,-0.28064 l -0.74835,-19.08304 5.7062,2.61924 c 3.64823,-0.71717 5.11375,-3.8665 4.39658,-9.44798 l -10.47696,-6.64164 c -9.26591,6.0277 -18.02789,6.58897 -26.28596,1.68379 z"
       id="path4"
       sodipodi:nodetypes="ccccccccccc"
       inkscape:export-filename="red.svg"
       inkscape:export-xdpi="96"
       inkscape:export-ydpi="96" /><path
       id="path72"
       style="display:inline;fill:#478cbf;fill-opacity:1;stroke:none;stroke-width:1.285;stroke-linecap:butt;stroke-linejoin:round;stroke-miterlimit:7.6;stroke-opacity:1;paint-order:markers stroke fill"
       d="m 127.74893,165.10109 c -0.06,0.004 -0.10496,0.0161 -0.12919,0.0403 -0.35742,0.35741 -0.27278,1.04849 -0.74827,1.28623 -0.11601,0.0581 -1.08937,0.0703 -1.2392,0.0703 -0.0173,0 -0.0985,0.0124 -0.11576,0.001 l -5.1e-4,-5.1e-4 -5.2e-4,-5.2e-4 c -0.25015,-0.25015 -0.34747,-1.55264 -0.93586,-1.35651 -0.29374,0.0979 -1.38541,0.26918 -1.49655,0.49145 -0.11125,0.2225 0.0876,0.90656 0.11679,1.16892 0.0115,0.10399 0.0124,0.28635 -0.0465,0.37465 -0.13314,0.1997 -0.93742,0.97123 -1.09916,1.05213 -0.19257,0.0963 -1.34635,-0.83551 -1.61385,-0.70176 -0.25058,0.12529 -0.89635,1.271 -1.21595,1.5906 l -5.2e-4,5.1e-4 v 5.2e-4 5.2e-4 c -2e-5,2.6e-4 -10e-6,0.001 0,0.002 0.003,0.0205 0.0662,0.10907 0.0708,0.11369 0.2261,0.2261 0.69413,0.81288 0.77153,1.12241 0.29726,1.18915 -0.10226,2.97038 -0.0465,3.88193 0.43899,-0.12541 0.87198,-0.0491 1.30948,0.0238 0.28189,0.047 1.00042,-0.15098 1.16944,0.18707 0.1448,0.28974 0.0865,1.06839 0.0935,1.07539 0.0403,0.0402 0.68103,0.14871 0.77153,0.16381 0.091,0.0152 1.18669,0.14356 1.19269,0.14056 0.0618,-0.0309 0.0173,-0.26087 0.0233,-0.30437 0.1063,-0.74409 -0.18661,-0.81841 0.65526,-1.02888 0.27942,-0.0699 2.20344,0.1015 2.33835,0.30386 0.15041,0.22557 -0.0324,0.62238 0.14056,0.7953 0.0469,0.047 0.51018,-0.0336 0.678,0 0.25756,0.0516 1.27584,0.28798 1.40301,-0.0935 0.0831,-0.24935 0.0243,-1.04081 0.35089,-1.12241 0.62452,-0.15616 1.41944,0.0119 2.0345,-0.23409 0.1052,-0.0421 0.2325,-0.11412 0.2806,-0.21032 0.0518,-0.10362 -0.064,-0.36838 -0.0465,-0.49093 0.10893,-0.76282 0.04,-1.54706 0.11679,-2.31511 0.0243,-0.24297 -0.014,-1.20247 0.14004,-1.3565 0.0686,-0.0686 0.68108,-0.44185 0.58498,-0.53795 -0.23442,-0.23442 -0.41321,-0.67679 -0.63148,-0.98237 -0.70358,-0.985 -0.45145,-0.65823 -1.49655,-0.21033 -0.11282,0.0483 -0.40428,0.34402 -0.53796,0.21033 -0.21745,-0.21745 -0.53512,-0.52154 -0.81855,-0.74828 -0.11565,-0.0925 -0.30734,-0.16677 -0.37414,-0.23357 -0.0964,-0.0964 0.22743,-1.62811 0.21033,-1.63711 -0.26116,-0.13058 -1.43861,-0.55704 -1.85881,-0.53175 z m -4.75681,5.42809 c 0.10079,0.001 0.18887,0.009 0.25476,0.0145 1.27832,-0.18262 1.38014,2.12785 0.49093,2.57245 -0.28156,0.14078 -0.95587,0.35737 -1.26297,0.2806 -1.04551,-0.26137 -1.0657,-1.73668 -0.49093,-2.45514 0.28753,-0.35942 0.70582,-0.416 1.00821,-0.41238 z m 6.48797,0.0434 c 0.0582,-0.002 0.11582,0.0181 0.24443,0.0181 0.82121,0 1.32185,0.92923 1.0294,1.66037 -0.39802,0.99504 -2.32364,1.72644 -2.57245,0.23357 -0.0359,-0.21555 -0.10738,-0.45538 -0.0703,-0.67799 0.0898,-0.53851 0.53341,-1.10863 1.12241,-1.12241 0.12968,-0.0865 0.18829,-0.10985 0.24649,-0.11162 z m -3.18895,0.7338 c 0.53417,-0.0162 0.51988,1.31307 0.39326,1.69292 -0.0389,0.11672 -0.45933,0.61657 -0.63149,0.44442 -0.16244,-0.16244 -0.21032,-0.51266 -0.21032,-0.74828 0,-0.2084 0.0233,-0.40259 0.0233,-0.60823 0,-0.3373 0.0485,-0.57233 0.11731,-0.65474 0.11868,-0.0848 0.22058,-0.12343 0.30799,-0.12609 z" /><path
       style="fill:#414042;fill-opacity:1;stroke:none;stroke-width:1.285;stroke-linecap:butt;stroke-linejoin:round;stroke-miterlimit:7.6;stroke-opacity:1;paint-order:markers stroke fill"
       d="m 14.288897,52.642073 c -0.132908,0.0016 -0.535713,0.297519 -0.65481,0.65481 -0.269796,0.809389 0.842906,1.70008 1.473323,0.912058 0.497172,-0.621464 -0.09083,-1.982687 -0.818513,-1.566868 z"
       id="path73"
       transform="translate(108.67723,118.48636)" /><path
       style="fill:#414042;fill-opacity:1;stroke:none;stroke-width:1.285;stroke-linecap:butt;stroke-linejoin:round;stroke-miterlimit:7.6;stroke-opacity:1;paint-order:markers stroke fill"
       d="m 20.556367,52.735617 c 0.0532,-0.152818 -0.518531,-0.108855 -0.631424,0.116933 -0.372121,0.744238 -0.221095,1.28411 0.608038,1.449935 0.259467,0.0519 0.487844,0.07179 0.724969,-0.04677 0.65084,-0.325421 0.184924,-1.852535 -0.701583,-1.520097 z"
       id="path75"
       transform="translate(108.67723,118.48636)" /></g><path
     style="fill:#478cbf;fill-opacity:1;stroke:none;stroke-width:1.285;stroke-linecap:butt;stroke-linejoin:round;stroke-miterlimit:7.6;stroke-opacity:1;paint-order:markers stroke fill"
     d="m 18.388295,20.228961 c 0.184073,-0.172243 -0.701344,-0.04094 -0.912057,-0.02339 -0.249209,0.02077 -0.503447,0.08164 -0.748355,0 -0.02745,-0.0092 -0.307972,-0.169463 -0.327405,-0.140316 -0.09815,0.147232 0.03104,0.545092 0.07016,0.701582 0.05989,0.239575 0.09544,0.495843 0.187088,0.724969 0.240945,0.602364 1.31181,1.566079 1.870887,1.824114 0.780059,0.360029 1.785713,0.19771 2.619241,0.257249 0.765372,0.05467 1.714172,0.212524 2.478925,0.11693 1.038831,-0.129855 4.261908,-0.894313 4.934463,-1.566868 0.408911,-0.40891 0.582622,-1.460089 0.467722,-2.03459 -0.07511,-0.375533 -0.788757,0.197009 -1.028987,0.11693 -0.200769,-0.06692 -0.380562,0.07016 -0.584653,0.07016 -0.04828,0 -0.382222,7.94e-4 -0.397563,0.04677 -0.107562,0.322686 0.0316,0.782799 -0.163703,1.075759 -0.09427,0.141404 -1.016146,0.229399 -1.169304,0.257246 -0.225145,0.04094 -1.822457,0.08434 -1.941045,-0.09354 -0.210016,-0.315027 0.06337,-0.937708 -0.420949,-1.099146 -0.207098,-0.06903 -0.517805,0.02606 -0.724969,0.04677 -0.245911,0.02461 -0.64941,-0.119629 -0.841899,-0.02339 -0.08161,0.04081 -0.149941,0.87491 -0.350791,1.075761 -0.246679,0.246679 -0.804342,0.123023 -1.099146,0.09354 -0.273178,-0.02732 -1.496142,-0.09241 -1.61364,-0.327406 -0.17227,-0.34454 -0.06479,-0.764227 -0.304019,-1.099145 z"
     id="path77" /></svg>
