<?xml version="1.0" encoding="UTF-8" standalone="no"?>
<!-- Created with Inkscape (http://www.inkscape.org/) -->

<svg
   width="47.002502mm"
   height="32.834061mm"
   viewBox="0 0 47.002502 32.83406"
   version="1.1"
   id="svg1"
   xml:space="preserve"
   inkscape:export-filename="beret.svg"
   inkscape:export-xdpi="96"
   inkscape:export-ydpi="96"
   inkscape:version="1.4.2 (f4327f4, 2025-05-13)"
   sodipodi:docname="ne_rien.svg"
   xmlns:inkscape="http://www.inkscape.org/namespaces/inkscape"
   xmlns:sodipodi="http://sodipodi.sourceforge.net/DTD/sodipodi-0.dtd"
   xmlns="http://www.w3.org/2000/svg"
   xmlns:svg="http://www.w3.org/2000/svg"><sodipodi:namedview
     id="namedview1"
     pagecolor="#505050"
     bordercolor="#eeeeee"
     borderopacity="1"
     inkscape:showpageshadow="0"
     inkscape:pageopacity="0"
     inkscape:pagecheckerboard="0"
     inkscape:deskcolor="#d1d1d1"
     inkscape:document-units="mm"
     inkscape:zoom="4"
     inkscape:cx="78.75"
     inkscape:cy="204.5"
     inkscape:window-width="1920"
     inkscape:window-height="1017"
     inkscape:window-x="630"
     inkscape:window-y="1432"
     inkscape:window-maximized="1"
     inkscape:current-layer="layer1" /><defs
     id="defs1" /><g
     inkscape:label="Ebene 1"
     inkscape:groupmode="layer"
     id="layer1"
     transform="translate(-103.57223,-154.68802)"><path
       style="display:inline;opacity:1;fill:#000815;fill-opacity:1;stroke-width:7.99999;stroke-linejoin:round;stroke-miterlimit:7.6;paint-order:markers stroke fill"
       d="m 113.63508,156.37181 -10.05602,8.06821 c -0.0947,8.77428 0.73807,6.60262 6.12716,8.76977 l 4.0224,-4.30303 -0.74835,18.61532 c 7.12956,-1.65174 16.484,-1.74529 28.0633,-0.28064 l -0.74835,-19.08304 5.7062,2.61924 c 3.64823,-0.71717 5.11375,-3.8665 4.39658,-9.44798 l -10.47696,-6.64164 c -9.26591,6.0277 -18.02789,6.58897 -26.28596,1.68379 z"
       id="path4"
       sodipodi:nodetypes="ccccccccccc"
       inkscape:export-filename="baguettestyles\shirts\nouvelle.svg"
       inkscape:export-xdpi="96"
       inkscape:export-ydpi="96" /><path
       d="m 121.92929,172.4132 q 0.0241,0.0169 0.0241,0.0386 0,0.0289 -0.0434,0.0289 -0.0458,0 -0.0772,-0.002 -0.15916,-0.0121 -0.21222,-0.0121 -0.094,0 -0.15193,0.005 -0.0555,0.005 -0.12781,0.01 -0.0506,0 -0.0506,-0.0265 0,-0.0145 0.0265,-0.041 0.0699,-0.0482 0.1037,-0.0747 0.0651,-0.0506 0.0651,-0.0941 l -0.0289,-0.73794 q -0.0482,0.12299 -0.16157,0.21463 -0.13023,0.1037 -0.28216,0.1037 -0.15192,0 -0.26286,-0.082 -0.10852,-0.082 -0.10852,-0.22187 0,-0.1037 0.0675,-0.17604 0.0699,-0.0748 0.16881,-0.0748 0.041,0 0.0651,0.005 0.0241,0.002 0.041,0.0193 0.0169,0.0169 0.0169,0.0289 0,0.0145 -0.0217,0.0145 -0.0289,0 -0.0506,0.0121 -0.0193,0.01 -0.0338,0.0386 -0.0121,0.0265 -0.0121,0.0699 0,0.0289 0.005,0.0434 0.0193,0.0724 0.0868,0.10611 0.0482,0.0241 0.11093,0.0241 0.11093,0 0.18328,-0.10369 0.0724,-0.1037 0.0724,-0.23875 0,-0.13505 -0.0627,-0.23392 -0.0482,-0.0772 -0.19293,-0.20016 -0.13022,-0.11093 -0.31109,-0.20499 -0.4582,-0.23633 -0.52331,-0.28215 -0.15434,-0.11093 -0.28216,-0.26768 -0.11093,-0.13746 -0.17122,-0.26769 l -0.17845,2.41157 q 0,0.0434 0.0627,0.0941 0.0506,0.041 0.10128,0.0796 0.0169,0.0169 0.0169,0.0362 0,0.0265 -0.041,0.0265 -0.0265,0.002 -0.12299,-0.005 -0.0965,-0.01 -0.15193,-0.01 -0.0699,0 -0.16158,0.007 -0.0916,0.007 -0.10852,0.007 -0.0458,0 -0.0458,-0.0241 0,-0.0169 0.0217,-0.0386 0.0121,-0.01 0.1254,-0.0796 0.0868,-0.0531 0.0916,-0.0941 l 0.22186,-2.90353 q 0,-0.0458 -0.0675,-0.0989 -0.0555,-0.0386 -0.11093,-0.0796 -0.0193,-0.0145 -0.0193,-0.0338 0,-0.0314 0.0627,-0.0241 0.0434,0 0.0724,0.002 0.1447,0.0121 0.18328,0.0121 0.0603,0 0.15434,-0.007 0.0965,-0.01 0.12058,-0.007 0.041,0 0.041,0.0265 0,0.0145 -0.0121,0.0265 -0.0651,0.041 -0.10129,0.0675 -0.0723,0.0506 -0.0772,0.11575 0,0.14952 0.0651,0.28457 0.0651,0.13263 0.18327,0.23392 0.12058,0.10129 0.28457,0.18569 0.14228,0.0699 0.28457,0.13746 0.17122,0.0868 0.30144,0.19534 0.14711,0.12299 0.2701,0.27974 0.11334,0.14469 0.16399,0.26527 l -0.10611,-1.58199 q -0.005,-0.0434 -0.0941,-0.0965 -0.1254,-0.0748 -0.13263,-0.082 -0.0193,-0.0193 -0.0193,-0.0338 0,-0.0241 0.0482,-0.0241 0.0458,0 0.0772,0.002 0.15916,0.0121 0.20739,0.0121 0.0916,0 0.18569,-0.007 0.0965,-0.007 0.10852,-0.007 0.0362,0 0.0362,0.0241 0,0.0169 -0.0169,0.0338 -0.0699,0.0507 -0.11094,0.0796 -0.0772,0.0555 -0.0772,0.0989 l 0.18328,2.90353 q 0,0.0362 0.0506,0.0724 0.0796,0.0482 0.16157,0.0965 z m 3.41286,-2.73954 q 0,0.20498 -0.12781,0.3545 -0.1254,0.14952 -0.38344,0.27251 -0.19293,0.0916 -0.45579,0.14951 -0.13746,0.0289 -0.46543,0.0796 -0.32557,0.0506 -0.47267,0.0892 -0.24839,0.0675 -0.4799,0.24116 -0.19293,0.14711 -0.3111,0.31833 0.0748,0.43408 0.42444,0.78135 0.38826,0.38585 0.87299,0.38585 0.34726,0 0.58601,-0.13264 0.23875,-0.13263 0.23875,-0.34967 0,-0.0699 -0.0169,-0.12058 -0.0145,-0.0531 -0.0265,-0.0916 -0.007,-0.0145 0,-0.0241 0.007,-0.01 0.0289,-0.01 0.0651,0.01 0.1254,0.0675 0.082,0.0796 0.082,0.19293 0,0.30626 -0.35209,0.5016 -0.32074,0.17846 -0.75723,0.17846 -0.70177,0 -1.14068,-0.48714 -0.44614,-0.49437 -0.44614,-1.2926 0,-0.70659 0.46303,-1.22026 0.47508,-0.52572 1.15755,-0.52572 0.30145,0 0.51608,0.11576 0.24115,0.13022 0.24115,0.34726 0,0.11093 -0.0699,0.19052 -0.0699,0.0796 -0.19052,0.0989 -0.01,0.002 -0.0241,0.002 -0.0193,0 -0.0265,0 -0.0482,0 -0.0844,-0.007 -0.0362,-0.01 -0.0627,-0.0289 -0.0217,-0.01 -0.0217,-0.0241 0,-0.0145 0.0217,-0.0289 0.0482,-0.0338 0.0651,-0.0555 0.041,-0.0507 0.0506,-0.12782 0.002,-0.01 0.002,-0.0169 0,-0.0121 0,-0.0169 0,-0.13263 -0.1664,-0.2098 -0.13987,-0.0651 -0.31832,-0.0651 -0.27733,0 -0.51126,0.11576 -0.23151,0.11334 -0.40996,0.3328 -0.1664,0.20498 -0.24116,0.47025 -0.0748,0.26286 -0.0748,0.57878 0,0.0627 0.002,0.13746 0.005,0.0724 0.0145,0.16399 0.0892,-0.12541 0.27492,-0.28939 0.24839,-0.21946 0.46785,-0.30386 0.19051,-0.0724 0.39308,-0.11093 0.11335,-0.0217 0.38585,-0.0555 0.27251,-0.0338 0.4365,-0.0651 0.26527,-0.0506 0.40514,-0.12299 0.21704,-0.11335 0.21704,-0.29663 0,-0.1254 -0.0723,-0.16881 -0.0193,-0.0145 -0.0675,-0.0145 -0.0289,0 -0.0434,0.01 -0.0265,0.0217 -0.041,0.0217 -0.0121,0 -0.0121,-0.0241 0,-0.002 0.007,-0.041 0.01,-0.0386 0.0603,-0.0796 0.0507,-0.041 0.11576,-0.041 0.10128,0 0.15916,0.0772 0.0579,0.0748 0.0579,0.17364 z"
       id="text80"
       style="font-size:4.9389px;font-family:Harrington;-inkscape-font-specification:'Harrington, Normal';letter-spacing:-0.185208px;fill:#eff3f9;stroke-width:1.285;stroke-linejoin:round;stroke-miterlimit:7.6;paint-order:markers stroke fill"
       aria-label="NE" /><path
       d="m 120.91299,174.98009 v 1.1557 l 0.01,0.22719 q 0.0148,0.15804 0.079,0.22719 0.0642,0.0691 0.21731,0.0889 l 0.25189,0.0198 v 0.079 h -2.37068 v -0.079 h 0.15311 q 0.10866,-0.0148 0.20743,-0.0247 0.0988,-0.0148 0.15311,-0.0741 0.0593,-0.0642 0.0741,-0.22225 l 0.01,-0.22719 v -2.34104 l -0.01,-0.22719 q -0.0148,-0.15805 -0.0741,-0.22225 -0.0593,-0.0642 -0.16792,-0.079 -0.10866,-0.0148 -0.18768,-0.0148 -0.079,-0.005 -0.14817,-0.01 v -0.079 l 2.20769,-0.005 q 0.45932,0 0.74577,0.0395 0.28646,0.0395 0.46426,0.15805 0.18274,0.11853 0.28646,0.29633 0.10865,0.17286 0.10865,0.40499 0,0.17286 -0.0642,0.34572 -0.0593,0.17286 -0.18768,0.29634 -0.12841,0.12347 -0.32103,0.19261 -0.18768,0.0692 -0.60255,0.0692 v 0.0346 q 0.25189,0.0543 0.41981,0.10372 0.17286,0.0494 0.31115,0.14323 0.13829,0.0938 0.24695,0.28151 0.11359,0.18274 0.18274,0.40499 0.0691,0.21731 0.12347,0.31115 0.0543,0.0889 0.1531,0.0889 0.12842,0 0.16793,-0.16298 0.0444,-0.16792 0.0444,-0.38029 h 0.079 q 0,0.242 -0.0296,0.38523 -0.0296,0.14323 -0.14817,0.30127 -0.11853,0.15311 -0.34079,0.25189 -0.21731,0.0938 -0.47413,0.0938 -0.40005,0 -0.64206,-0.22719 -0.23706,-0.23213 -0.29633,-0.60255 -0.0543,-0.37536 -0.0889,-0.63218 -0.0543,-0.28646 -0.14323,-0.33091 -0.0889,-0.0494 -0.19262,-0.0543 -0.10371,-0.005 -0.20743,-0.005 z m 0.39511,-0.10372 q 0.18768,-0.0296 0.28152,-0.27164 0.0988,-0.242 0.0988,-0.53834 0,-0.242 -0.0988,-0.47413 -0.0988,-0.23707 -0.23707,-0.27658 -0.13829,-0.0395 -0.24694,-0.0444 -0.10866,-0.005 -0.19262,-0.01 v 1.62984 h 0.16792 q 0.13829,0 0.22719,-0.0148 z m 4.47218,1.90148 h -2.32622 v -0.079 q 0.0346,0 0.0938,0 0.0593,-0.005 0.19261,-0.0198 0.13829,-0.0198 0.19262,-0.084 0.0593,-0.0642 0.0741,-0.21731 l 0.01,-0.22719 v -2.34598 l -0.01,-0.22719 q -0.0148,-0.15804 -0.0692,-0.21731 -0.0494,-0.0642 -0.20249,-0.084 l -0.2667,-0.0198 v -0.079 h 2.3114 v 0.079 l -0.2667,0.0148 q -0.15311,0.0148 -0.20743,0.0741 -0.0494,0.0543 -0.0642,0.22225 l -0.01,0.22719 v 2.36573 l 0.01,0.22719 q 0.0148,0.16299 0.0691,0.22225 0.0593,0.0543 0.21238,0.0741 l 0.25682,0.0148 z m 1.91382,-0.0988 q 0.20743,-0.005 0.42475,-0.005 0.21731,-0.005 0.45931,-0.0346 0.24201,-0.0346 0.59761,-0.48895 0.3556,-0.45932 0.52352,-0.94333 h 0.079 v 1.57057 h -3.88198 v -0.079 q 0.0642,0 0.14817,-0.005 0.084,-0.01 0.18768,-0.0198 0.10865,-0.0148 0.16298,-0.0741 0.0593,-0.0642 0.0741,-0.22225 l 0.01,-0.22719 v -2.34104 l -0.01,-0.22719 q -0.0148,-0.15805 -0.0741,-0.22225 -0.0593,-0.0642 -0.16792,-0.079 -0.10372,-0.0148 -0.19262,-0.0148 -0.084,-0.005 -0.15311,-0.01 v -0.079 h 3.79802 v 1.46191 h -0.079 q -0.25189,-0.55315 -0.61243,-0.92851 -0.36054,-0.38029 -0.60748,-0.40499 -0.24201,-0.0247 -0.40993,-0.0296 -0.16792,-0.005 -0.22225,-0.005 h -0.0444 l -0.01,1.61996 0.20743,-0.01 q 0.28646,-0.0296 0.42969,-0.2667 0.14817,-0.24201 0.14817,-0.56797 h 0.0938 v 1.79776 h -0.0938 q 0,-0.33091 -0.14817,-0.57786 -0.14323,-0.24694 -0.42969,-0.27657 l -0.20743,-0.01 z m 6.5959,-3.42266 q -0.0642,0.005 -0.14322,0.01 -0.0741,0.005 -0.21238,0.0296 -0.13829,0.0198 -0.21237,0.1136 -0.0691,0.0889 -0.084,0.24694 l -0.01,0.23707 v 2.88432 h -0.60255 l -2.34597,-3.00285 h -0.0198 v 2.30646 l 0.01,0.23707 q 0.0148,0.16298 0.079,0.24201 0.0692,0.079 0.2025,0.10371 0.13829,0.0198 0.23213,0.0247 0.0988,0.005 0.13335,0.01 v 0.079 h -1.42241 v -0.079 q 0.0642,-0.005 0.14323,-0.01 0.079,-0.005 0.27658,-0.0346 0.20249,-0.0346 0.23213,-0.33584 l 0.01,-0.23707 v -2.2472 l -0.01,-0.22719 q -0.0642,-0.10371 -0.15311,-0.19261 -0.0889,-0.0889 -0.19755,-0.12348 -0.10372,-0.0346 -0.2025,-0.0346 h -0.14817 v -0.079 h 1.88666 l 1.77307,2.27189 h 0.0198 v -1.57551 l -0.01,-0.23706 q -0.0148,-0.15805 -0.084,-0.23707 -0.0642,-0.084 -0.19755,-0.10372 -0.13335,-0.0247 -0.21731,-0.0296 -0.079,-0.005 -0.14817,-0.01 v -0.079 h 1.4224 z"
       id="text81"
       style="font-size:4.9389px;font-family:Elephant;-inkscape-font-specification:'Elephant, Normal';letter-spacing:-0.185208px;fill:#eff3f9;stroke-width:1.285;stroke-linejoin:round;stroke-miterlimit:7.6;paint-order:markers stroke fill"
       aria-label="RIEN" /></g></svg>
