<?xml version="1.0" encoding="UTF-8" standalone="no"?>
<!-- Created with Inkscape (http://www.inkscape.org/) -->

<svg
   width="47.002502mm"
   height="32.834057mm"
   viewBox="0 0 47.002502 32.834056"
   version="1.1"
   id="svg1"
   xml:space="preserve"
   inkscape:export-filename="beret.svg"
   inkscape:export-xdpi="96"
   inkscape:export-ydpi="96"
   inkscape:version="1.4.2 (f4327f4, 2025-05-13)"
   sodipodi:docname="nouvelle.svg"
   xmlns:inkscape="http://www.inkscape.org/namespaces/inkscape"
   xmlns:sodipodi="http://sodipodi.sourceforge.net/DTD/sodipodi-0.dtd"
   xmlns="http://www.w3.org/2000/svg"
   xmlns:svg="http://www.w3.org/2000/svg"><sodipodi:namedview
     id="namedview1"
     pagecolor="#505050"
     bordercolor="#eeeeee"
     borderopacity="1"
     inkscape:showpageshadow="0"
     inkscape:pageopacity="0"
     inkscape:pagecheckerboard="0"
     inkscape:deskcolor="#d1d1d1"
     inkscape:document-units="mm"
     inkscape:zoom="4"
     inkscape:cx="78.75"
     inkscape:cy="204.5"
     inkscape:window-width="2560"
     inkscape:window-height="1377"
     inkscape:window-x="-8"
     inkscape:window-y="-8"
     inkscape:window-maximized="1"
     inkscape:current-layer="layer1"><inkscape:page
       x="-2.6414696e-16"
       y="0"
       width="47.002502"
       height="32.834057"
       id="page2"
       margin="0"
       bleed="0" /></sodipodi:namedview><defs
     id="defs1" /><g
     inkscape:label="Ebene 1"
     inkscape:groupmode="layer"
     id="layer1"
     transform="translate(-103.57223,-154.68802)"><path
       style="display:inline;opacity:1;fill:#000815;fill-opacity:1;stroke-width:7.99999;stroke-linejoin:round;stroke-miterlimit:7.6;paint-order:markers stroke fill"
       d="m 113.63508,156.37181 -10.05602,8.06821 c -0.0947,8.77428 0.73807,6.60262 6.12716,8.76977 l 4.0224,-4.30303 -0.74835,18.61532 c 7.12956,-1.65174 16.484,-1.74529 28.0633,-0.28064 l -0.74835,-19.08304 5.7062,2.61924 c 3.64823,-0.71717 5.11375,-3.8665 4.39658,-9.44798 l -10.47696,-6.64164 c -9.26591,6.0277 -18.02789,6.58897 -26.28596,1.68379 z"
       id="path4"
       sodipodi:nodetypes="ccccccccccc"
       inkscape:export-filename="baguettestyles\shirts\godot.svg"
       inkscape:export-xdpi="96"
       inkscape:export-ydpi="96" /><path
       d="m 118.89278,171.0145 v 2.09806 q 0,0.2484 0.0265,0.36656 0.0289,0.11817 0.1037,0.19534 0.0675,0.0699 0.15193,0.10129 0.0868,0.0314 0.22427,0.0386 v 0.0555 h -1.11173 v -0.0555 q 0.13746,-0.007 0.22186,-0.0386 0.0868,-0.0314 0.15434,-0.10129 0.0748,-0.0772 0.10129,-0.19534 0.0289,-0.12058 0.0289,-0.36656 v -1.77974 q 0,-0.24357 -0.0289,-0.36173 -0.0265,-0.12058 -0.10129,-0.19775 -0.0651,-0.0699 -0.15193,-0.10129 -0.0844,-0.0314 -0.22427,-0.0386 v -0.0555 h 0.92845 l 1.9582,2.49839 v -1.74116 q 0,-0.24839 -0.0289,-0.36655 -0.0265,-0.11817 -0.10128,-0.19534 -0.0675,-0.0699 -0.15434,-0.10129 -0.0844,-0.0314 -0.22187,-0.0386 v -0.0555 h 1.11174 v 0.0555 q -0.24116,0 -0.37621,0.13987 -0.0748,0.0772 -0.1037,0.19775 -0.0265,0.11816 -0.0265,0.36173 v 2.53698 h -0.10853 z m 2.96913,1.83761 q 0,-0.39067 0.28939,-0.69694 0.35209,-0.37138 0.84164,-0.37138 0.48955,0 0.83923,0.37138 0.28938,0.30868 0.28938,0.69935 0,0.38586 -0.27491,0.6873 -0.33762,0.37139 -0.8537,0.37139 -0.51608,0 -0.85611,-0.37139 -0.13264,-0.14469 -0.20498,-0.32315 -0.0699,-0.17845 -0.0699,-0.36656 z m 0.43891,-0.0265 q 0,0.41961 0.1881,0.71141 0.21222,0.32556 0.51849,0.32556 0.13022,0 0.25321,-0.0724 0.12299,-0.0723 0.21222,-0.20257 0.094,-0.13505 0.15193,-0.33762 0.0579,-0.20498 0.0579,-0.3955 0,-0.19774 -0.0627,-0.3979 -0.0603,-0.20258 -0.16399,-0.34727 -0.19775,-0.27251 -0.48473,-0.27251 -0.2725,0 -0.47025,0.28698 -0.20016,0.28698 -0.20016,0.70177 z m 3.58649,1.0852 q -0.0314,-0.14469 -0.0314,-0.29662 -0.30145,0.29904 -0.71383,0.29904 -0.30144,0 -0.48472,-0.14711 -0.17846,-0.1447 -0.17846,-0.40997 v -0.83923 l -0.002,-0.18327 q 0,-0.16399 -0.0193,-0.23875 -0.0193,-0.0748 -0.0724,-0.12781 -0.0699,-0.0651 -0.2508,-0.0965 v -0.0506 h 0.70659 v 1.22267 q 0,0.25804 0.0169,0.38344 0.0193,0.12299 0.0675,0.20257 0.0531,0.082 0.15193,0.13022 0.0989,0.0458 0.22187,0.0458 0.13504,0 0.25321,-0.053 0.11817,-0.0531 0.18569,-0.14469 0.0699,-0.0941 0.0916,-0.21705 0.0241,-0.12299 0.0241,-0.40514 v -0.47267 l -0.002,-0.17845 q 0,-0.16399 -0.0193,-0.23875 -0.0169,-0.0748 -0.0723,-0.12781 -0.0675,-0.0651 -0.25081,-0.0965 v -0.0506 h 0.70659 v 1.30948 q 0,0.2484 0.0121,0.34968 0.0145,0.0989 0.0531,0.16158 0.0434,0.0675 0.10128,0.0989 0.0579,0.0289 0.1664,0.0362 v 0.0482 z m 0.50691,-2.09083 h 0.93328 v 0.0506 q -0.10611,0.0217 -0.14469,0.0482 -0.0772,0.0482 -0.0772,0.15435 0,0.0651 0.0241,0.15192 0.0241,0.0868 0.0892,0.25322 l 0.39067,0.99116 0.39309,-1.03216 q 0.0868,-0.2291 0.0868,-0.34003 0,-0.12058 -0.0748,-0.17604 -0.0386,-0.0289 -0.14228,-0.0506 v -0.0506 h 0.66559 v 0.0506 q -0.13505,0.0338 -0.21704,0.12058 -0.1037,0.10852 -0.23875,0.45579 l -0.55707,1.42283 h -0.13023 l -0.6053,-1.49518 q -0.13987,-0.34485 -0.20016,-0.4172 -0.0338,-0.0386 -0.0748,-0.0555 -0.041,-0.0193 -0.12058,-0.0314 z m 2.46752,0.73794 q -0.01,0.11817 -0.01,0.17122 0,0.20981 0.0603,0.40997 0.0627,0.20016 0.16881,0.3328 0.10852,0.13505 0.26768,0.21222 0.16158,0.0772 0.33762,0.0772 0.13023,0 0.24598,-0.0434 0.11817,-0.0434 0.19534,-0.12058 0.0868,-0.0844 0.14952,-0.2701 l 0.0482,0.0169 q -0.0627,0.28216 -0.2701,0.42685 -0.20498,0.14229 -0.54743,0.14229 -0.29662,0 -0.50884,-0.0941 -0.21222,-0.0941 -0.35932,-0.28938 -0.20498,-0.27251 -0.20498,-0.67042 0,-0.54261 0.38826,-0.85129 0.28215,-0.22427 0.64389,-0.22427 0.19292,0 0.35691,0.0699 0.16399,0.0675 0.27733,0.19775 0.17605,0.20257 0.17605,0.50643 z m 1.05627,-0.094 q -0.0169,-0.24116 -0.0892,-0.37138 -0.0651,-0.11817 -0.17363,-0.18569 -0.10852,-0.0699 -0.23151,-0.0699 -0.2074,0 -0.36415,0.17846 -0.15434,0.17845 -0.18328,0.44855 z m 0.50209,-1.8955 0.69212,-0.0868 v 2.69131 l 0.002,0.18328 q 0,0.16399 0.0193,0.24116 0.0193,0.0748 0.0748,0.1254 0.0675,0.0651 0.24839,0.0989 v 0.0482 h -1.0635 v -0.0482 q 0.14469,-0.0193 0.20739,-0.0531 0.0627,-0.0362 0.10129,-0.12058 0.0265,-0.0555 0.0362,-0.1664 0.0121,-0.11334 0.0121,-0.32556 v -1.89308 q 0,-0.24598 -0.0121,-0.34727 -0.0121,-0.10129 -0.053,-0.16399 -0.041,-0.0675 -0.0989,-0.0965 -0.0579,-0.0289 -0.1664,-0.0362 z m 1.01093,0 0.69213,-0.0868 v 2.69131 l 0.002,0.18328 q 0,0.16399 0.0193,0.24116 0.0193,0.0748 0.0748,0.1254 0.0675,0.0651 0.24839,0.0989 v 0.0482 h -1.0635 v -0.0482 q 0.14469,-0.0193 0.20739,-0.0531 0.0627,-0.0362 0.10129,-0.12058 0.0265,-0.0555 0.0362,-0.1664 0.0121,-0.11334 0.0121,-0.32556 v -1.89308 q 0,-0.24598 -0.0121,-0.34727 -0.0121,-0.10129 -0.053,-0.16399 -0.041,-0.0675 -0.0989,-0.0965 -0.0579,-0.0289 -0.1664,-0.0362 z m 1.49325,1.98955 q -0.01,0.11817 -0.01,0.17122 0,0.20981 0.0603,0.40997 0.0627,0.20016 0.16881,0.3328 0.10852,0.13505 0.26769,0.21222 0.16157,0.0772 0.33762,0.0772 0.13022,0 0.24598,-0.0434 0.11817,-0.0434 0.19534,-0.12058 0.0868,-0.0844 0.14951,-0.2701 l 0.0482,0.0169 q -0.0627,0.28216 -0.2701,0.42685 -0.20498,0.14229 -0.54743,0.14229 -0.29662,0 -0.50884,-0.0941 -0.21222,-0.0941 -0.35932,-0.28938 -0.20499,-0.27251 -0.20499,-0.67042 0,-0.54261 0.38827,-0.85129 0.28215,-0.22427 0.64389,-0.22427 0.19292,0 0.35691,0.0699 0.16398,0.0675 0.27733,0.19775 0.17604,0.20257 0.17604,0.50643 z m 1.05627,-0.094 q -0.0169,-0.24116 -0.0892,-0.37138 -0.0651,-0.11817 -0.17363,-0.18569 -0.10852,-0.0699 -0.23151,-0.0699 -0.2074,0 -0.36415,0.17846 -0.15434,0.17845 -0.18328,0.44855 z m 1.01334,0.86093 q 0.12058,0 0.20499,0.0868 0.0868,0.0844 0.0868,0.20739 0,0.12058 -0.0868,0.2074 -0.0844,0.0844 -0.20499,0.0844 -0.12058,0 -0.20739,-0.0844 -0.0844,-0.0868 -0.0844,-0.2074 0,-0.12299 0.0844,-0.20739 0.0868,-0.0868 0.20739,-0.0868 z"
       id="text80"
       style="font-size:4.9389px;font-family:'Baskerville Old Face';-inkscape-font-specification:'Baskerville Old Face, @wght=700';font-variation-settings:'wght' 700;letter-spacing:-0.185208px;fill:#eff3f9;stroke-width:1.285;stroke-linejoin:round;stroke-miterlimit:7.6;paint-order:markers stroke fill"
       aria-label="Nouvelle." /></g></svg>
