<?xml version="1.0" encoding="UTF-8" standalone="no"?>
<!-- Created with Inkscape (http://www.inkscape.org/) -->

<svg
   width="47.002502mm"
   height="32.834057mm"
   viewBox="0 0 47.002502 32.834056"
   version="1.1"
   id="svg1"
   xml:space="preserve"
   inkscape:export-filename="beret.svg"
   inkscape:export-xdpi="96"
   inkscape:export-ydpi="96"
   inkscape:version="1.4.2 (f4327f4, 2025-05-13)"
   sodipodi:docname="pie.svg"
   xmlns:inkscape="http://www.inkscape.org/namespaces/inkscape"
   xmlns:sodipodi="http://sodipodi.sourceforge.net/DTD/sodipodi-0.dtd"
   xmlns="http://www.w3.org/2000/svg"
   xmlns:svg="http://www.w3.org/2000/svg"><sodipodi:namedview
     id="namedview1"
     pagecolor="#505050"
     bordercolor="#eeeeee"
     borderopacity="1"
     inkscape:showpageshadow="0"
     inkscape:pageopacity="0"
     inkscape:pagecheckerboard="0"
     inkscape:deskcolor="#d1d1d1"
     inkscape:document-units="mm"
     inkscape:zoom="4"
     inkscape:cx="78.75"
     inkscape:cy="204.5"
     inkscape:window-width="1920"
     inkscape:window-height="1017"
     inkscape:window-x="630"
     inkscape:window-y="1432"
     inkscape:window-maximized="1"
     inkscape:current-layer="layer1"><inkscape:page
       x="-2.6414696e-16"
       y="0"
       width="47.002502"
       height="32.834057"
       id="page2"
       margin="0"
       bleed="0" /></sodipodi:namedview><defs
     id="defs1" /><g
     inkscape:label="Ebene 1"
     inkscape:groupmode="layer"
     id="layer1"
     transform="translate(-103.57223,-154.68802)"><path
       style="display:inline;opacity:1;fill:#000815;fill-opacity:1;stroke-width:7.99999;stroke-linejoin:round;stroke-miterlimit:7.6;paint-order:markers stroke fill"
       d="m 113.63508,156.37181 -10.05602,8.06821 c -0.0947,8.77428 0.73807,6.60262 6.12716,8.76977 l 4.0224,-4.30303 -0.74835,18.61532 c 7.12956,-1.65174 16.484,-1.74529 28.0633,-0.28064 l -0.74835,-19.08304 5.7062,2.61924 c 3.64823,-0.71717 5.11375,-3.8665 4.39658,-9.44798 l -10.47696,-6.64164 c -9.26591,6.0277 -18.02789,6.58897 -26.28596,1.68379 z"
       id="path4"
       sodipodi:nodetypes="ccccccccccc"
       inkscape:export-filename="baguettestyles\shirts\chained.svg"
       inkscape:export-xdpi="96"
       inkscape:export-ydpi="96" /><path
       style="fill:none;fill-opacity:1;stroke:#ffffff;stroke-width:0.499999;stroke-linecap:round;stroke-linejoin:round;stroke-miterlimit:7.6;stroke-dasharray:none;stroke-opacity:1;paint-order:markers stroke fill"
       id="path87"
       sodipodi:type="arc"
       sodipodi:cx="125.83997"
       sodipodi:cy="171.17853"
       sodipodi:rx="4.700603"
       sodipodi:ry="4.700603"
       sodipodi:start="4.7946361"
       sodipodi:end="4.7750991"
       sodipodi:arc-type="arc"
       d="m 126.22615,166.49381 a 4.700603,4.700603 0 0 1 4.30037,5.04801 4.700603,4.700603 0 0 1 -5.02694,4.32497 4.700603,4.700603 0 0 1 -4.34948,-5.00575 4.700603,4.700603 0 0 1 4.98446,-4.37388"
       sodipodi:open="true" /><path
       d="m 124.83204,170.98953 q 0,-0.0831 -0.0157,-0.13025 -0.0157,-0.0494 -0.0561,-0.0741 -0.0382,-0.0247 -0.0853,-0.0314 -0.0449,-0.009 -0.12576,-0.009 v 0.49407 q 0.0629,0 0.11004,-0.0112 0.0494,-0.0112 0.0898,-0.0382 0.0404,-0.0269 0.0606,-0.0764 0.0225,-0.0517 0.0225,-0.12351 z m -0.28296,0.66923 q 0,0.1819 -0.0674,0.26051 -0.0674,0.0763 -0.20661,0.0763 -0.13924,0 -0.20436,-0.0696 -0.0651,-0.0719 -0.0651,-0.25152 v -0.9477 q 0,-0.13699 0.0741,-0.20212 0.0741,-0.0674 0.19538,-0.0674 h 0.39974 q 0.14598,0 0.26949,0.0404 0.12352,0.0382 0.21335,0.11004 0.0921,0.0696 0.14148,0.17742 0.0516,0.10555 0.0516,0.2358 0,0.15945 -0.0921,0.27847 -0.0921,0.11678 -0.24254,0.17517 -0.15046,0.0584 -0.3391,0.0584 h -0.12801 z m 1.48107,0 q 0,0.17517 -0.0651,0.25601 -0.0651,0.0808 -0.19762,0.0808 -0.13026,0 -0.19314,-0.0696 -0.0606,-0.0696 -0.0606,-0.24927 v -0.94995 q 0,-0.26949 0.25377,-0.26949 0.13025,0 0.19538,0.0494 0.0674,0.0494 0.0674,0.19987 z m 1.11725,-0.57491 q 0.11903,0 0.16619,0.0382 0.0494,0.0382 0.0494,0.13025 0,0.0764 -0.0584,0.11004 -0.0562,0.0314 -0.17742,0.0314 h -0.36381 v 0.23805 l 0.48733,0.002 q 0.12576,0 0.17966,0.0382 0.0561,0.0359 0.0561,0.13026 0,0.10779 -0.0651,0.15046 -0.0629,0.0427 -0.19313,0.0427 h -0.72762 q -0.1325,0 -0.19538,-0.0696 -0.0606,-0.0719 -0.0606,-0.25152 v -0.9477 q 0,-0.26949 0.25601,-0.26949 h 0.72762 q 0.13025,0 0.19313,0.0404 0.0651,0.0404 0.0651,0.14598 0,0.0988 -0.0561,0.13923 -0.0539,0.0382 -0.17966,0.0382 h -0.48957 v 0.26275 z"
       id="text87"
       style="font-size:2.24574px;font-family:Coiny;-inkscape-font-specification:'Coiny, Normal';letter-spacing:-0.0842153px;fill:#ffffff;stroke-width:0.227353;stroke-linecap:round;stroke-linejoin:round;stroke-miterlimit:7.6;paint-order:markers stroke fill"
       aria-label="PIE" /><path
       style="fill:none;fill-opacity:1;stroke:#ffffff;stroke-width:0.499999;stroke-linecap:round;stroke-linejoin:round;stroke-miterlimit:7.6;stroke-dasharray:none;stroke-opacity:1;paint-order:markers stroke fill"
       d="m 131.54737,166.38438 v 9.35444"
       id="path88" /></g></svg>
