<?xml version="1.0" encoding="UTF-8" standalone="no"?>
<!-- Created with Inkscape (http://www.inkscape.org/) -->

<svg
   width="16.851658mm"
   height="10.998862mm"
   viewBox="0 0 16.851658 10.998862"
   version="1.1"
   id="svg1"
   xml:space="preserve"
   sodipodi:docname="mouth_open.svg"
   inkscape:export-filename="mouth_sad.svg"
   inkscape:export-xdpi="48.099998"
   inkscape:export-ydpi="48.099998"
   xmlns:inkscape="http://www.inkscape.org/namespaces/inkscape"
   xmlns:sodipodi="http://sodipodi.sourceforge.net/DTD/sodipodi-0.dtd"
   xmlns="http://www.w3.org/2000/svg"
   xmlns:svg="http://www.w3.org/2000/svg"><sodipodi:namedview
     id="namedview1"
     pagecolor="#ffffff"
     bordercolor="#000000"
     borderopacity="0.25"
     inkscape:showpageshadow="2"
     inkscape:pageopacity="0.0"
     inkscape:pagecheckerboard="0"
     inkscape:deskcolor="#d1d1d1"
     inkscape:document-units="mm"
     inkscape:zoom="1.443272"
     inkscape:cx="22.171843"
     inkscape:cy="205.43598"
     inkscape:window-width="1680"
     inkscape:window-height="1050"
     inkscape:window-x="0"
     inkscape:window-y="0"
     inkscape:window-maximized="0"
     inkscape:current-layer="svg1"><inkscape:page
       x="0"
       y="0"
       width="16.851658"
       height="10.998862"
       id="page2"
       margin="0"
       bleed="0" /></sodipodi:namedview><defs
     id="defs1" /><g
     id="g4"
     style="display:none"
     transform="translate(-21.330088,-30.371763)"><g
       id="layer1"
       transform="translate(-115.49163,-80.333021)"><path
         id="path1"
         style="display:inline;fill:#e8b970;fill-opacity:1;stroke:none;stroke-width:0.992889;stroke-linejoin:round;stroke-opacity:1"
         d="m 144.12453,43.915535 c -11.25493,1e-6 -19.87372,26.549525 -19.87372,41.084831 v 0.0124 c 0,0 0.35597,123.761014 0.35697,128.659294 10e-4,4.89827 5.17771,34.60039 18.6781,43.68477 13.5043,9.087 18.72569,-10.93184 22.29007,-29.74867 3.56438,-18.81683 -0.56794,-142.594875 -0.56794,-142.594875 v -0.01292 c 0,-14.535309 -9.62856,-41.084834 -20.88348,-41.08483 z" /><path
         id="path1-2"
         style="display:inline;fill:none;fill-opacity:1;stroke:#f5d1a4;stroke-width:3;stroke-linejoin:round;stroke-dasharray:none;stroke-opacity:1"
         d="m 143.84835,52.722303 c -10.37315,1e-6 -15.67086,24.469465 -15.67086,37.865982 v 0.01143 c 0,0 0.32808,114.064775 0.329,118.579295 9.2e-4,4.5145 2.12623,31.88957 14.56891,40.26222 12.44629,8.37507 15.6711,-10.07537 18.95622,-27.41797 3.28513,-17.3426 -0.52344,-131.423067 -0.52344,-131.423067 v -0.01191 c 0,-13.39652 -7.2867,-37.865985 -17.65983,-37.86598 z"
         sodipodi:nodetypes="sscssscss" /><path
         style="display:inline;fill:#dead6c;fill-opacity:1;stroke:none;stroke-width:1;stroke-linejoin:round;stroke-dasharray:none;stroke-opacity:1"
         d="m 132.03828,178.03087 c 0,0 -6.29354,20.40759 6.6254,29.81076 6.93546,5.04804 22.12902,17.5462 21.14044,18.27463 0,0 5.98376,-18.89313 -4.14322,-34.85517 -10.12698,-15.96204 -23.62262,-13.23022 -23.62262,-13.23022 z"
         id="path2-5" /><path
         style="display:inline;fill:#dead6c;fill-opacity:1;stroke:none;stroke-width:1;stroke-linejoin:round;stroke-dasharray:none;stroke-opacity:1"
         d="m 132.03828,129.76784 c 0,0 -6.29354,20.40759 6.6254,29.81076 6.93546,5.04804 22.12902,17.5462 21.14044,18.27463 0,0 5.98376,-18.89313 -4.14322,-34.85517 -10.12698,-15.96204 -23.62262,-13.23022 -23.62262,-13.23022 z"
         id="path2-5-0" /><path
         style="display:inline;fill:#dead6c;fill-opacity:1;stroke:none;stroke-width:1;stroke-linejoin:round;stroke-dasharray:none;stroke-opacity:1"
         d="m 131.70771,77.43597 c 0,0 -6.29354,20.40759 6.6254,29.81076 6.93546,5.04804 22.12902,17.5462 21.14044,18.27463 0,0 5.98376,-18.89313 -4.14322,-34.85517 C 145.20335,74.70415 131.70771,77.43597 131.70771,77.43597 Z"
         id="path2-5-2" /></g><ellipse
       style="display:inline;fill:#f5d1a4;fill-opacity:1;stroke:#f5d1a4;stroke-width:3;stroke-linejoin:round"
       id="path2"
       cx="11.740623"
       cy="8.3702908"
       rx="10.240623"
       ry="6.8702912" /><ellipse
       style="display:inline;fill:#f5d1a4;fill-opacity:1;stroke:#f5d1a4;stroke-width:3;stroke-linejoin:round"
       id="path2-6"
       cx="44.059319"
       cy="8.7371464"
       rx="10.240623"
       ry="6.8702912" /><circle
       style="fill:#896d47;fill-opacity:1;stroke:#f5d1a4;stroke-width:0;stroke-linejoin:round;stroke-dasharray:none"
       id="path3"
       cx="11.536904"
       cy="8.4258289"
       r="5.0554972" /><circle
       style="fill:#896d47;fill-opacity:1;stroke:#f5d1a4;stroke-width:0;stroke-linejoin:round;stroke-dasharray:none"
       id="path3-1"
       cx="43.933285"
       cy="8.6122856"
       r="5.0554972" /></g><ellipse
     style="fill:#896d47;fill-opacity:1;stroke:#896d47;stroke-width:0;stroke-linecap:round;stroke-linejoin:round;stroke-dasharray:none;stroke-opacity:1"
     id="path7"
     cx="8.4258289"
     cy="5.5544233"
     rx="8.4258289"
     ry="5.4443817" /><path
     id="path6"
     style="fill:#b49772;fill-opacity:1;stroke:#896d47;stroke-width:0;stroke-linecap:round;stroke-linejoin:round;stroke-dasharray:none;stroke-opacity:1"
     d="M 8.7497351,5.8136489 A 6.4165931,4.5369849 0 0 0 2.4937862,9.3431492 8.6850853,5.8332663 0 0 0 8.5554317,10.998862 8.6850853,5.8332663 0 0 0 14.929203,9.1281752 6.4165931,4.5369849 0 0 0 8.7497351,5.8136489 Z" /><path
     style="fill:#f5d1a4;fill-opacity:1;stroke:#896d47;stroke-width:0;stroke-linecap:round;stroke-linejoin:round;stroke-dasharray:none;stroke-opacity:1"
     d="M 1.4508483,2.5684856 2.5873977,3.6414541 C 6.1771349,1.8149585 9.2559093,0.36150632 14.105877,3.3959008 L 15.18087,2.1101809 C 9.7489331,-1.6036397 2.855979,0.25614883 1.4508483,2.5684856 Z"
     id="path8"
     sodipodi:nodetypes="ccccc" /></svg>
