<?xml version="1.0" encoding="UTF-8" standalone="no"?>
<!-- Created with Inkscape (http://www.inkscape.org/) -->

<svg
   width="9.0850859mm"
   height="10.852812mm"
   viewBox="0 0 9.085086 10.852812"
   version="1.1"
   id="svg1"
   xml:space="preserve"
   xmlns="http://www.w3.org/2000/svg"
   xmlns:svg="http://www.w3.org/2000/svg"><defs
     id="defs1" /><g
     id="g4"
     style="display:none"
     transform="translate(-25.744017,-30.666442)"><g
       id="layer1"
       transform="translate(-115.49163,-80.333021)"
       style="display:inline"><path
         id="path1"
         style="display:inline;fill:#e8b970;fill-opacity:1;stroke:none;stroke-width:0.992889;stroke-linejoin:round;stroke-opacity:1"
         d="m 144.12453,43.915535 c -11.25493,1e-6 -19.87372,26.549525 -19.87372,41.084831 v 0.0124 c 0,0 0.35597,123.761014 0.35697,128.659294 10e-4,4.89827 5.17771,34.60039 18.6781,43.68477 13.5043,9.087 18.72569,-10.93184 22.29007,-29.74867 3.56438,-18.81683 -0.56794,-142.594875 -0.56794,-142.594875 v -0.01292 c 0,-14.535309 -9.62856,-41.084834 -20.88348,-41.08483 z" /><path
         id="path1-2"
         style="display:inline;fill:none;fill-opacity:1;stroke:#f5d1a4;stroke-width:3;stroke-linejoin:round;stroke-dasharray:none;stroke-opacity:1"
         d="m 143.84835,52.722303 c -10.37315,1e-6 -15.67086,24.469465 -15.67086,37.865982 v 0.01143 c 0,0 0.32808,114.064775 0.329,118.579295 9.2e-4,4.5145 2.12623,31.88957 14.56891,40.26222 12.44629,8.37507 15.6711,-10.07537 18.95622,-27.41797 3.28513,-17.3426 -0.52344,-131.423067 -0.52344,-131.423067 v -0.01191 c 0,-13.39652 -7.2867,-37.865985 -17.65983,-37.86598 z" /><path
         style="display:inline;fill:#dead6c;fill-opacity:1;stroke:none;stroke-width:1;stroke-linejoin:round;stroke-dasharray:none;stroke-opacity:1"
         d="m 132.03828,178.03087 c 0,0 -6.29354,20.40759 6.6254,29.81076 6.93546,5.04804 22.12902,17.5462 21.14044,18.27463 0,0 5.98376,-18.89313 -4.14322,-34.85517 -10.12698,-15.96204 -23.62262,-13.23022 -23.62262,-13.23022 z"
         id="path2-5" /><path
         style="display:inline;fill:#dead6c;fill-opacity:1;stroke:none;stroke-width:1;stroke-linejoin:round;stroke-dasharray:none;stroke-opacity:1"
         d="m 132.03828,129.76784 c 0,0 -6.29354,20.40759 6.6254,29.81076 6.93546,5.04804 22.12902,17.5462 21.14044,18.27463 0,0 5.98376,-18.89313 -4.14322,-34.85517 -10.12698,-15.96204 -23.62262,-13.23022 -23.62262,-13.23022 z"
         id="path2-5-0" /><path
         style="display:inline;fill:#dead6c;fill-opacity:1;stroke:none;stroke-width:1;stroke-linejoin:round;stroke-dasharray:none;stroke-opacity:1"
         d="m 131.70771,77.43597 c 0,0 -6.29354,20.40759 6.6254,29.81076 6.93546,5.04804 22.12902,17.5462 21.14044,18.27463 0,0 5.98376,-18.89313 -4.14322,-34.85517 C 145.20335,74.70415 131.70771,77.43597 131.70771,77.43597 Z"
         id="path2-5-2" /></g><ellipse
       style="display:inline;fill:#f5d1a4;fill-opacity:1;stroke:#f5d1a4;stroke-width:3;stroke-linejoin:round"
       id="path2"
       cx="11.740623"
       cy="8.3702908"
       rx="10.240623"
       ry="6.8702912" /><ellipse
       style="display:inline;fill:#f5d1a4;fill-opacity:1;stroke:#f5d1a4;stroke-width:3;stroke-linejoin:round"
       id="path2-6"
       cx="44.059319"
       cy="8.7371464"
       rx="10.240623"
       ry="6.8702912" /><circle
       style="fill:#896d47;fill-opacity:1;stroke:#f5d1a4;stroke-width:0;stroke-linejoin:round;stroke-dasharray:none"
       id="path3"
       cx="11.536904"
       cy="8.4258289"
       r="5.0554972" /><circle
       style="fill:#896d47;fill-opacity:1;stroke:#f5d1a4;stroke-width:0;stroke-linejoin:round;stroke-dasharray:none"
       id="path3-1"
       cx="43.933285"
       cy="8.6122856"
       r="5.0554972" /></g><ellipse
     style="fill:#896d47;fill-opacity:1;stroke:#896d47;stroke-width:0.4;stroke-linecap:round;stroke-linejoin:round;stroke-dasharray:none;stroke-opacity:1"
     id="path11"
     cx="4.5425425"
     cy="5.5081115"
     rx="4.3425426"
     ry="5.1203113" /><path
     id="path11-8"
     style="fill:#b5976f;fill-opacity:1;stroke:none;stroke-width:0.4;stroke-linecap:round;stroke-linejoin:round;stroke-dasharray:none;stroke-opacity:1"
     d="m 6.4220472,6.2861016 c -2.1476085,9.15e-5 -3.8885585,1.4944168 -3.888651,3.3377808 3.92e-5,0.1622226 0.00575,0.4903126 0.033239,0.6508106 0.661398,0.45183 1.4088693,0.644024 2.1789846,0.558168 1.9429104,7.9e-5 3.6551614,-1.5559404 4.1842844,-3.7602441 -0.701613,-0.507996 -1.58996,-0.7865996 -2.507857,-0.7865153 z" /><path
     style="fill:#f5d1a4;fill-opacity:1;stroke:none;stroke-width:0.4;stroke-linecap:round;stroke-linejoin:round;stroke-dasharray:none;stroke-opacity:1"
     d="M 0.95159588,2.2147262 1.6373664,2.9983347 C 3.4824021,-0.03508023 5.6063932,0.17770157 7.6958532,3.0104667 L 8.1721302,2.332222 C 5.2659906,-2.1656562 1.7838773,1.0137821 0.95159588,2.2147262 Z"
     id="path12" /></svg>
