<?xml version="1.0" encoding="UTF-8" standalone="no"?>
<!-- Created with Inkscape (http://www.inkscape.org/) -->

<svg
   width="5.1194305mm"
   height="6.1047068mm"
   viewBox="0 0 5.1194306 6.1047069"
   version="1.1"
   id="svg1"
   xml:space="preserve"
   xmlns="http://www.w3.org/2000/svg"
   xmlns:svg="http://www.w3.org/2000/svg"><defs
     id="defs1" /><g
     id="g4"
     style="display:none"
     transform="translate(-27.726844,-33.040495)"><g
       id="layer1"
       transform="translate(-115.49163,-80.333021)"
       style="display:inline"><path
         id="path1"
         style="display:inline;fill:#e8b970;fill-opacity:1;stroke:none;stroke-width:0.992889;stroke-linejoin:round;stroke-opacity:1"
         d="m 144.12453,43.915535 c -11.25493,1e-6 -19.87372,26.549525 -19.87372,41.084831 v 0.0124 c 0,0 0.35597,123.761014 0.35697,128.659294 10e-4,4.89827 5.17771,34.60039 18.6781,43.68477 13.5043,9.087 18.72569,-10.93184 22.29007,-29.74867 3.56438,-18.81683 -0.56794,-142.594875 -0.56794,-142.594875 v -0.01292 c 0,-14.535309 -9.62856,-41.084834 -20.88348,-41.08483 z" /><path
         id="path1-2"
         style="display:inline;fill:none;fill-opacity:1;stroke:#f5d1a4;stroke-width:3;stroke-linejoin:round;stroke-dasharray:none;stroke-opacity:1"
         d="m 143.84835,52.722303 c -10.37315,1e-6 -15.67086,24.469465 -15.67086,37.865982 v 0.01143 c 0,0 0.32808,114.064775 0.329,118.579295 9.2e-4,4.5145 2.12623,31.88957 14.56891,40.26222 12.44629,8.37507 15.6711,-10.07537 18.95622,-27.41797 3.28513,-17.3426 -0.52344,-131.423067 -0.52344,-131.423067 v -0.01191 c 0,-13.39652 -7.2867,-37.865985 -17.65983,-37.86598 z" /><path
         style="display:inline;fill:#dead6c;fill-opacity:1;stroke:none;stroke-width:1;stroke-linejoin:round;stroke-dasharray:none;stroke-opacity:1"
         d="m 132.03828,178.03087 c 0,0 -6.29354,20.40759 6.6254,29.81076 6.93546,5.04804 22.12902,17.5462 21.14044,18.27463 0,0 5.98376,-18.89313 -4.14322,-34.85517 -10.12698,-15.96204 -23.62262,-13.23022 -23.62262,-13.23022 z"
         id="path2-5" /><path
         style="display:inline;fill:#dead6c;fill-opacity:1;stroke:none;stroke-width:1;stroke-linejoin:round;stroke-dasharray:none;stroke-opacity:1"
         d="m 132.03828,129.76784 c 0,0 -6.29354,20.40759 6.6254,29.81076 6.93546,5.04804 22.12902,17.5462 21.14044,18.27463 0,0 5.98376,-18.89313 -4.14322,-34.85517 -10.12698,-15.96204 -23.62262,-13.23022 -23.62262,-13.23022 z"
         id="path2-5-0" /><path
         style="display:inline;fill:#dead6c;fill-opacity:1;stroke:none;stroke-width:1;stroke-linejoin:round;stroke-dasharray:none;stroke-opacity:1"
         d="m 131.70771,77.43597 c 0,0 -6.29354,20.40759 6.6254,29.81076 6.93546,5.04804 22.12902,17.5462 21.14044,18.27463 0,0 5.98376,-18.89313 -4.14322,-34.85517 C 145.20335,74.70415 131.70771,77.43597 131.70771,77.43597 Z"
         id="path2-5-2" /></g><ellipse
       style="display:inline;fill:#f5d1a4;fill-opacity:1;stroke:#f5d1a4;stroke-width:3;stroke-linejoin:round"
       id="path2"
       cx="11.740623"
       cy="8.3702908"
       rx="10.240623"
       ry="6.8702912" /><ellipse
       style="display:inline;fill:#f5d1a4;fill-opacity:1;stroke:#f5d1a4;stroke-width:3;stroke-linejoin:round"
       id="path2-6"
       cx="44.059319"
       cy="8.7371464"
       rx="10.240623"
       ry="6.8702912" /><circle
       style="fill:#896d47;fill-opacity:1;stroke:#f5d1a4;stroke-width:0;stroke-linejoin:round;stroke-dasharray:none"
       id="path3"
       cx="11.536904"
       cy="8.4258289"
       r="5.0554972" /><circle
       style="fill:#896d47;fill-opacity:1;stroke:#f5d1a4;stroke-width:0;stroke-linejoin:round;stroke-dasharray:none"
       id="path3-1"
       cx="43.933285"
       cy="8.6122856"
       r="5.0554972" /></g><ellipse
     style="fill:#896d47;fill-opacity:1;stroke:#896d47;stroke-width:0.225204;stroke-linecap:round;stroke-linejoin:round;stroke-dasharray:none;stroke-opacity:1"
     id="path11"
     cx="2.5597153"
     cy="3.0983126"
     rx="2.4471133"
     ry="2.8801751" /><path
     id="path11-8"
     style="fill:#b5976f;fill-opacity:1;stroke:none;stroke-width:0.225204;stroke-linecap:round;stroke-linejoin:round;stroke-dasharray:none;stroke-opacity:1"
     d="m 3.6188553,3.5359321 c -1.2102221,5.14e-5 -2.1912837,0.8406094 -2.1913358,1.8775017 2.21e-5,0.09125 0.00324,0.2758008 0.018731,0.366081 C 1.8189619,6.0336691 2.2401776,6.1417783 2.6741536,6.0934843 3.7690241,6.0935287 4.7339132,5.2182678 5.032085,3.9783469 4.6367115,3.6925992 4.1361094,3.5358847 3.6188553,3.5359321 Z" /><path
     style="fill:#f5d1a4;fill-opacity:1;stroke:none;stroke-width:0.225204;stroke-linecap:round;stroke-linejoin:round;stroke-dasharray:none;stroke-opacity:1"
     d="m 0.53614212,1.2457834 0.3864459,0.4407798 C 1.9623041,-0.01973274 3.1592173,0.09995696 4.3366715,1.6933874 L 4.6050636,1.3118748 C 2.9673934,-1.2181817 1.00515,0.57025226 0.53614212,1.2457834 Z"
     id="path12" /></svg>
