<?xml version="1.0" encoding="UTF-8" standalone="no"?>
<!-- Created with Inkscape (http://www.inkscape.org/) -->

<svg
   width="16.851658mm"
   height="5.882978mm"
   viewBox="0 0 16.851658 5.8829779"
   version="1.1"
   id="svg1"
   xml:space="preserve"
   sodipodi:docname="mouth_open.svg"
   inkscape:export-filename="phonetics/V.svg"
   inkscape:export-xdpi="48.099998"
   inkscape:export-ydpi="48.099998"
   xmlns:inkscape="http://www.inkscape.org/namespaces/inkscape"
   xmlns:sodipodi="http://sodipodi.sourceforge.net/DTD/sodipodi-0.dtd"
   xmlns="http://www.w3.org/2000/svg"
   xmlns:svg="http://www.w3.org/2000/svg"><sodipodi:namedview
     id="namedview1"
     pagecolor="#ffffff"
     bordercolor="#000000"
     borderopacity="0.25"
     inkscape:showpageshadow="2"
     inkscape:pageopacity="0.0"
     inkscape:pagecheckerboard="0"
     inkscape:deskcolor="#d1d1d1"
     inkscape:document-units="mm"
     inkscape:zoom="1.443272"
     inkscape:cx="22.171843"
     inkscape:cy="205.43598"
     inkscape:window-width="1680"
     inkscape:window-height="1050"
     inkscape:window-x="0"
     inkscape:window-y="0"
     inkscape:window-maximized="0"
     inkscape:current-layer="svg1"><inkscape:page
       x="0"
       y="0"
       width="16.851658"
       height="5.882978"
       id="page2"
       margin="0"
       bleed="0" /></sodipodi:namedview><defs
     id="defs1" /><g
     id="g4"
     style="display:none"
     transform="translate(-21.421749,-34.529062)"><g
       id="layer1"
       transform="translate(-115.49163,-80.333021)"><path
         id="path1"
         style="display:inline;fill:#e8b970;fill-opacity:1;stroke:none;stroke-width:0.992889;stroke-linejoin:round;stroke-opacity:1"
         d="m 144.12453,43.915535 c -11.25493,1e-6 -19.87372,26.549525 -19.87372,41.084831 v 0.0124 c 0,0 0.35597,123.761014 0.35697,128.659294 10e-4,4.89827 5.17771,34.60039 18.6781,43.68477 13.5043,9.087 18.72569,-10.93184 22.29007,-29.74867 3.56438,-18.81683 -0.56794,-142.594875 -0.56794,-142.594875 v -0.01292 c 0,-14.535309 -9.62856,-41.084834 -20.88348,-41.08483 z"
         sodipodi:nodetypes="sscssscss" /><path
         id="path1-2"
         style="display:inline;fill:none;fill-opacity:1;stroke:#f5d1a4;stroke-width:3;stroke-linejoin:round;stroke-dasharray:none;stroke-opacity:1"
         d="m 143.84835,52.722303 c -10.37315,1e-6 -15.67086,24.469465 -15.67086,37.865982 v 0.01143 c 0,0 0.32808,114.064775 0.329,118.579295 9.2e-4,4.5145 2.12623,31.88957 14.56891,40.26222 12.44629,8.37507 15.6711,-10.07537 18.95622,-27.41797 3.28513,-17.3426 -0.52344,-131.423067 -0.52344,-131.423067 v -0.01191 c 0,-13.39652 -7.2867,-37.865985 -17.65983,-37.86598 z"
         sodipodi:nodetypes="sscssscss" /><path
         style="display:inline;fill:#dead6c;fill-opacity:1;stroke:none;stroke-width:1;stroke-linejoin:round;stroke-dasharray:none;stroke-opacity:1"
         d="m 132.03828,178.03087 c 0,0 -6.29354,20.40759 6.6254,29.81076 6.93546,5.04804 22.12902,17.5462 21.14044,18.27463 0,0 5.98376,-18.89313 -4.14322,-34.85517 -10.12698,-15.96204 -23.62262,-13.23022 -23.62262,-13.23022 z"
         id="path2-5" /><path
         style="display:inline;fill:#dead6c;fill-opacity:1;stroke:none;stroke-width:1;stroke-linejoin:round;stroke-dasharray:none;stroke-opacity:1"
         d="m 132.03828,129.76784 c 0,0 -6.29354,20.40759 6.6254,29.81076 6.93546,5.04804 22.12902,17.5462 21.14044,18.27463 0,0 5.98376,-18.89313 -4.14322,-34.85517 -10.12698,-15.96204 -23.62262,-13.23022 -23.62262,-13.23022 z"
         id="path2-5-0" /><path
         style="display:inline;fill:#dead6c;fill-opacity:1;stroke:none;stroke-width:1;stroke-linejoin:round;stroke-dasharray:none;stroke-opacity:1"
         d="m 131.70771,77.43597 c 0,0 -6.29354,20.40759 6.6254,29.81076 6.93546,5.04804 22.12902,17.5462 21.14044,18.27463 0,0 5.98376,-18.89313 -4.14322,-34.85517 C 145.20335,74.70415 131.70771,77.43597 131.70771,77.43597 Z"
         id="path2-5-2" /></g><ellipse
       style="display:inline;fill:#f5d1a4;fill-opacity:1;stroke:#f5d1a4;stroke-width:3;stroke-linejoin:round"
       id="path2"
       cx="11.740623"
       cy="8.3702908"
       rx="10.240623"
       ry="6.8702912" /><ellipse
       style="display:inline;fill:#f5d1a4;fill-opacity:1;stroke:#f5d1a4;stroke-width:3;stroke-linejoin:round"
       id="path2-6"
       cx="44.059319"
       cy="8.7371464"
       rx="10.240623"
       ry="6.8702912" /><circle
       style="fill:#896d47;fill-opacity:1;stroke:#f5d1a4;stroke-width:0;stroke-linejoin:round;stroke-dasharray:none"
       id="path3"
       cx="11.536904"
       cy="8.4258289"
       r="5.0554972" /><circle
       style="fill:#896d47;fill-opacity:1;stroke:#f5d1a4;stroke-width:0;stroke-linejoin:round;stroke-dasharray:none"
       id="path3-1"
       cx="43.933285"
       cy="8.6122856"
       r="5.0554972" /></g><path
     id="path7"
     style="display:inline;fill:#896d47;stroke:#896d47;stroke-width:0;stroke-linecap:round;stroke-linejoin:round"
     d="m 16.851658,3.505326 c 0,1.5640953 -4.322338,-0.2844268 -8.9757947,-0.2844268 C 3.2224065,3.2208992 0,5.0694213 0,3.505326 8.2157179e-8,1.9412307 3.7723722,0.67328094 8.4258289,0.67328094 13.079286,0.6732809 16.851658,1.9412307 16.851658,3.505326 Z"
     sodipodi:nodetypes="sssss" /><path
     style="fill:#f5d1a4;fill-opacity:1;stroke:#896d47;stroke-width:0;stroke-linecap:round;stroke-linejoin:round;stroke-dasharray:none;stroke-opacity:1"
     d="M 0.85505267,2.3984376 1.8311955,3.9984564 C 5.9736167,3.0795265 9.5600532,3.1576636 14.793333,4.027886 L 15.776666,2.2151157 C 10.344729,-1.4987049 2.2601834,0.08610089 0.85505267,2.3984376 Z"
     id="path8"
     sodipodi:nodetypes="ccccc" /><path
     style="fill:none;fill-opacity:1;stroke:#896d47;stroke-width:0.4;stroke-linecap:round;stroke-linejoin:round;stroke-dasharray:none;stroke-opacity:1"
     d="M 4.0789116,3.4372851 C 3.1844671,4.3702068 2.6723768,5.1293311 3.1164717,5.4538258"
     id="path9"
     sodipodi:nodetypes="cc" /><path
     style="fill:#ae987c;fill-opacity:1;stroke:#896d47;stroke-width:0.4;stroke-linecap:round;stroke-linejoin:round;stroke-dasharray:none;stroke-opacity:1"
     d="m 8.0203319,3.3456242 v 2.062371"
     id="path10" /><path
     style="fill:none;fill-opacity:1;stroke:#896d47;stroke-width:0.4;stroke-linecap:round;stroke-linejoin:round;stroke-dasharray:none;stroke-opacity:1"
     d="m 11.824261,3.6664376 c 1.030201,0.7422252 1.086688,1.395931 0.779118,2.0165406"
     id="path11"
     sodipodi:nodetypes="cc" /></svg>
