<?xml version="1.0" encoding="UTF-8" standalone="no"?>
<!-- Created with Inkscape (http://www.inkscape.org/) -->

<svg
   width="42.77438mm"
   height="215.70123mm"
   viewBox="0 0 42.77438 215.70123"
   version="1.1"
   id="svg1"
   xml:space="preserve"
   xmlns="http://www.w3.org/2000/svg"
   xmlns:svg="http://www.w3.org/2000/svg"><defs
     id="defs1" /><g
     id="layer1"
     transform="translate(-124.25081,-43.915535)"><path
       id="path1"
       style="fill:#e8b970;fill-opacity:1;stroke:none;stroke-width:0.992889;stroke-linejoin:round;stroke-opacity:1"
       d="m 144.12453,43.915535 c -11.25493,1e-6 -19.87372,26.549525 -19.87372,41.084831 v 0.0124 c 0,0 0.35597,123.761014 0.35697,128.659294 10e-4,4.89827 5.17771,34.60039 18.6781,43.68477 13.5043,9.087 18.72569,-10.93184 22.29007,-29.74867 3.56438,-18.81683 -0.56794,-142.594875 -0.56794,-142.594875 v -0.01292 c 0,-14.535309 -9.62856,-41.084834 -20.88348,-41.08483 z" /><path
       style="fill:#dead6c;fill-opacity:1;stroke:none;stroke-width:1;stroke-linejoin:round;stroke-dasharray:none;stroke-opacity:1"
       d="m 132.03828,178.03087 c 0,0 -6.29354,20.40759 6.6254,29.81076 6.93546,5.04804 22.12902,17.5462 21.14044,18.27463 0,0 5.98376,-18.89313 -4.14322,-34.85517 -10.12698,-15.96204 -23.62262,-13.23022 -23.62262,-13.23022 z"
       id="path2-5" /><path
       style="fill:#dead6c;fill-opacity:1;stroke:none;stroke-width:1;stroke-linejoin:round;stroke-dasharray:none;stroke-opacity:1"
       d="m 132.03828,129.76784 c 0,0 -6.29354,20.40759 6.6254,29.81076 6.93546,5.04804 22.12902,17.5462 21.14044,18.27463 0,0 5.98376,-18.89313 -4.14322,-34.85517 -10.12698,-15.96204 -23.62262,-13.23022 -23.62262,-13.23022 z"
       id="path2-5-0" /><path
       style="fill:#dead6c;fill-opacity:1;stroke:none;stroke-width:1;stroke-linejoin:round;stroke-dasharray:none;stroke-opacity:1"
       d="m 131.70771,77.43597 c 0,0 -6.29354,20.40759 6.6254,29.81076 6.93546,5.04804 22.12902,17.5462 21.14044,18.27463 0,0 5.98376,-18.89313 -4.14322,-34.85517 C 145.20335,74.70415 131.70771,77.43597 131.70771,77.43597 Z"
       id="path2-5-2" /></g></svg>
