<svg xmlns="http://www.w3.org/2000/svg" height="48px" viewBox="0 -960 960 960" width="48px" fill="#FFF9FB"><path d="M465.69-337.31q-6.31-2.69-10.84-8.23L314.31-486.08q-8.69-7.93-8.66-20.18.03-12.26 10.05-21.43 8.3-9.08 20.31-8.39 12 .7 21.53 8.39l92.77 94.38v-334q0-11.68 8.75-20.19 8.75-8.5 20.81-8.5 12.05 0 20.44 8.5 8.38 8.51 8.38 20.19v334l94.39-94.38q8.62-7.69 20.27-7.39 11.65.31 21.12 8 8.65 9.15 8.47 21.54-.17 12.39-8.86 21.08L504.17-345.55q-4.55 5.55-11.05 8.24-6.49 2.69-13.8 2.69-7.32 0-13.63-2.69ZM234.69-164q-28.53 0-49.61-21.08T164-234.69v-96.62q0-11.69 8.75-20.19 8.75-8.5 20.81-8.5 12.06 0 20.44 8.5 8.39 8.5 8.39 20.19v96.62q0 4.61 3.84 8.46 3.85 3.84 8.46 3.84h490.62q4.61 0 8.46-3.84 3.84-3.85 3.84-8.46v-96.62q0-11.69 8.76-20.19 8.75-8.5 20.8-8.5 12.06 0 20.44 8.5Q796-343 796-331.31v96.62q0 28.53-21.08 49.61T725.31-164H234.69Z"/></svg>