<svg xmlns="http://www.w3.org/2000/svg" height="48px" viewBox="0 -960 960 960" width="48px" fill="#FFF9FB"><path d="M570.65-389.57q37.96-37.18 37.96-90.15 0-52.97-37.68-90.93-37.68-37.96-90.65-37.96-52.97 0-90.43 37.68-37.46 37.68-37.46 90.65 0 52.97 37.18 90.43 37.18 37.46 90.15 37.46 52.97 0 90.93-37.18Zm-222.61 41.53Q294-402.08 294-480q0-77.92 54.04-132.46Q402.08-667 480-667q77.92 0 132.46 54.54Q667-557.92 667-480q0 77.92-54.54 131.96Q557.92-294 480-294q-77.92 0-131.96-54.04ZM72.69-451.31q-11.66 0-20.18-8.56Q44-468.44 44-480.18q0-11.74 8.51-20.63 8.52-8.88 20.18-8.88h104.62q11.66 0 20.68 9.06 9.01 9.07 9.01 20.81 0 11.74-9.01 20.13-9.02 8.38-20.68 8.38H72.69Zm710 0q-11.66 0-20.18-8.56-8.51-8.57-8.51-20.31 0-11.74 8.51-20.63 8.52-8.88 20.18-8.88h104.62q11.66 0 20.67 9.06 9.02 9.07 9.02 20.81 0 11.74-9.02 20.13-9.01 8.38-20.67 8.38H782.69Zm-323-311.2q-8.38-8.52-8.38-20.18v-104.62q0-11.66 8.56-20.67 8.57-9.02 20.31-9.02 11.74 0 20.63 9.02 8.88 9.01 8.88 20.67v104.62q0 11.66-9.06 20.18-9.07 8.51-20.81 8.51-11.74 0-20.13-8.51Zm0 710q-8.38-8.52-8.38-20.18v-104.62q0-11.66 8.56-20.68 8.57-9.01 20.31-9.01 11.74 0 20.63 9.01 8.88 9.02 8.88 20.68v104.62q0 11.66-9.06 20.18Q491.56-44 479.82-44q-11.74 0-20.13-8.51Zm-213.3-621.87-60.47-59.08q-8.69-8.69-8.98-20.65-.29-11.96 8.88-21.07 8.11-7.97 19.87-7.97 11.77 0 21.85 8.07L287-715q8.46 9.15 8.46 21.04 0 11.88-8.46 19.49-8.08 9.55-20.31 9.55-12.23 0-20.3-9.46Zm487.07 488.46L674-246q-9.46-8.13-8.96-19.71T674.5-287q7.19-8.08 19.11-7.88 11.93.19 21 8.26l60.47 59.08q7.69 9.69 7.98 21.65.29 11.96-7.88 20.07-9.11 8.97-20.87 8.97-11.77 0-20.85-9.07ZM674-674q-9.08-7.69-8.88-19.61.19-11.93 9.26-21l59.08-60.47q8.69-7.69 20.65-7.98 11.96-.29 21.07 7.88 7.97 9.11 7.97 20.87 0 11.77-8.07 20.85L715-674q-9.46 9.46-21.07 9.46-11.62 0-19.93-9.46ZM185.82-185.82q-8.97-8.11-8.97-19.87 0-11.77 9.07-21.85L246-287q8.03-8.08 19.48-8.08 11.44 0 21.3 8.08 7.91 8.69 7.72 20.61-.19 11.93-7.88 20l-59.08 60.47q-10.08 9.07-21.85 9.36-11.76.29-19.87-9.26ZM480-480Z"/></svg>