<?xml version="1.0" encoding="UTF-8" standalone="no"?>
<!-- Created with Inkscape (http://www.inkscape.org/) -->

<svg
   width="29.947008mm"
   height="9.7869997mm"
   viewBox="0 0 29.947008 9.7869994"
   version="1.1"
   id="svg1"
   xml:space="preserve"
   inkscape:export-filename="beret.svg"
   inkscape:export-xdpi="96"
   inkscape:export-ydpi="96"
   inkscape:version="1.4.2 (f4327f4, 2025-05-13)"
   sodipodi:docname="style_canvas.svg"
   xmlns:inkscape="http://www.inkscape.org/namespaces/inkscape"
   xmlns:sodipodi="http://sodipodi.sourceforge.net/DTD/sodipodi-0.dtd"
   xmlns:xlink="http://www.w3.org/1999/xlink"
   xmlns="http://www.w3.org/2000/svg"
   xmlns:svg="http://www.w3.org/2000/svg"><sodipodi:namedview
     id="namedview1"
     pagecolor="#505050"
     bordercolor="#eeeeee"
     borderopacity="1"
     inkscape:showpageshadow="0"
     inkscape:pageopacity="0"
     inkscape:pagecheckerboard="0"
     inkscape:deskcolor="#d1d1d1"
     inkscape:document-units="mm"
     inkscape:zoom="5.6568543"
     inkscape:cx="76.544309"
     inkscape:cy="247.84093"
     inkscape:window-width="2560"
     inkscape:window-height="1377"
     inkscape:window-x="-8"
     inkscape:window-y="-8"
     inkscape:window-maximized="1"
     inkscape:current-layer="layer1"><inkscape:page
       x="6.562939e-17"
       y="0"
       width="29.947008"
       height="9.7869997"
       id="page2"
       margin="0"
       bleed="0" /></sodipodi:namedview><defs
     id="defs1"><linearGradient
       id="linearGradient13630"
       inkscape:collect="always"><stop
         style="stop-color:#ff9e00;stop-opacity:1;"
         offset="0"
         id="stop13630" /><stop
         style="stop-color:#693b00;stop-opacity:1;"
         offset="1"
         id="stop13631" /></linearGradient><linearGradient
       id="swatch13586"
       inkscape:swatch="solid"><stop
         style="stop-color:#ff463e;stop-opacity:1;"
         offset="0"
         id="stop13586" /></linearGradient><linearGradient
       inkscape:collect="always"
       xlink:href="#linearGradient13630"
       id="linearGradient13631"
       x1="122.39766"
       y1="133.42772"
       x2="128.11183"
       y2="162.82457"
       gradientUnits="userSpaceOnUse" /></defs><g
     inkscape:label="Ebene 1"
     inkscape:groupmode="layer"
     id="layer1"
     transform="translate(-110.28127,-143.23265)"><path
       id="rect13629"
       style="baseline-shift:baseline;display:inline;overflow:visible;opacity:1;vector-effect:none;fill:url(#linearGradient13631);fill-opacity:1;stroke-linejoin:round;stroke-miterlimit:7.6;paint-order:markers stroke fill;enable-background:accumulate;stop-color:#000000;stop-opacity:1"
       d="m 114.88874,143.23265 c -2.54363,0 -4.60747,2.06333 -4.60747,4.60696 v 0.32814 c 0,2.54363 2.06384,4.60592 4.60747,4.60592 h 4.10724 c 2.43066,0 4.42148,-1.88273 4.59352,-4.2695 h 3.31969 c 0.0489,2.5013 2.09348,4.51548 4.60644,4.51548 h 4.10569 c 2.54364,0 4.60696,-2.06384 4.60696,-4.60747 v -0.32814 c 0,-2.54363 -2.06332,-4.60747 -4.60696,-4.60747 h -4.10569 c -2.34717,0 -4.28584,1.75709 -4.5713,4.02714 h -3.35483 c -0.17203,-2.38695 -2.16285,-4.27106 -4.59352,-4.27106 z m 0,0.99994 h 4.10724 c 2.00693,0 3.60546,1.60009 3.60546,3.60702 v 0.32814 c 0,2.00693 -1.59853,3.60547 -3.60546,3.60547 h -4.10724 c -2.00693,0 -3.60753,-1.59854 -3.60753,-3.60547 v -0.32814 c 0,-2.00693 1.6006,-3.60702 3.60753,-3.60702 z m 16.62689,0.24391 h 4.10569 c 2.00693,0 3.60702,1.60062 3.60702,3.60754 v 0.32814 c 0,2.00693 -1.60009,3.60753 -3.60702,3.60753 h -4.10569 c -2.00692,0 -3.60753,-1.6006 -3.60753,-3.60753 v -0.32814 c 0,-2.00692 1.60061,-3.60754 3.60753,-3.60754 z" /></g></svg>
