<?xml version="1.0" encoding="UTF-8" standalone="no"?>
<!-- Created with Inkscape (http://www.inkscape.org/) -->

<svg
   width="31.732937mm"
   height="24.129179mm"
   viewBox="0 0 31.732937 24.129178"
   version="1.1"
   id="svg1"
   xml:space="preserve"
   inkscape:export-filename="beret.svg"
   inkscape:export-xdpi="96"
   inkscape:export-ydpi="96"
   inkscape:version="1.4.2 (f4327f4, 2025-05-13)"
   sodipodi:docname="style_canvas.svg"
   xmlns:inkscape="http://www.inkscape.org/namespaces/inkscape"
   xmlns:sodipodi="http://sodipodi.sourceforge.net/DTD/sodipodi-0.dtd"
   xmlns="http://www.w3.org/2000/svg"
   xmlns:svg="http://www.w3.org/2000/svg"><sodipodi:namedview
     id="namedview1"
     pagecolor="#505050"
     bordercolor="#eeeeee"
     borderopacity="1"
     inkscape:showpageshadow="0"
     inkscape:pageopacity="0"
     inkscape:pagecheckerboard="0"
     inkscape:deskcolor="#d1d1d1"
     inkscape:document-units="mm"
     inkscape:zoom="5.6568543"
     inkscape:cx="76.544309"
     inkscape:cy="247.84093"
     inkscape:window-width="2560"
     inkscape:window-height="1377"
     inkscape:window-x="-8"
     inkscape:window-y="-8"
     inkscape:window-maximized="1"
     inkscape:current-layer="layer1"><inkscape:page
       x="7.9538802e-17"
       y="1.4539247e-15"
       width="31.732937"
       height="24.129177"
       id="page2"
       margin="0"
       bleed="0" /></sodipodi:namedview><defs
     id="defs1" /><g
     inkscape:label="Ebene 1"
     inkscape:groupmode="layer"
     id="layer1"
     transform="translate(-111.33288,-152.04025)"><g
       id="g2"
       inkscape:export-filename="baguettestyles\hats\goldkette.svg"
       inkscape:export-xdpi="96"
       inkscape:export-ydpi="96"><ellipse
         style="fill:none;stroke:#d48500;stroke-width:0.857221;stroke-linejoin:round;stroke-miterlimit:7.6;stroke-dasharray:none;stroke-opacity:1;paint-order:markers stroke fill"
         id="path1"
         cx="40.143883"
         cy="191.11861"
         rx="1.8462962"
         ry="2.9011059"
         transform="rotate(-23.786398)" /><ellipse
         style="fill:none;stroke:#d48500;stroke-width:0.857221;stroke-linejoin:round;stroke-miterlimit:7.6;stroke-dasharray:none;stroke-opacity:1;paint-order:markers stroke fill"
         id="path1-5"
         cx="-47.964352"
         cy="194.2823"
         rx="1.8462962"
         ry="2.9011059"
         transform="rotate(-49.561263)" /><ellipse
         style="fill:none;stroke:#d48500;stroke-width:0.857221;stroke-linejoin:round;stroke-miterlimit:7.6;stroke-dasharray:none;stroke-opacity:1;paint-order:markers stroke fill"
         id="path1-52"
         cx="42.577187"
         cy="199.41203"
         rx="1.8462962"
         ry="2.9011059"
         transform="rotate(-23.786398)" /><ellipse
         style="fill:none;stroke:#d48500;stroke-width:0.857221;stroke-linejoin:round;stroke-miterlimit:7.6;stroke-dasharray:none;stroke-opacity:1;paint-order:markers stroke fill"
         id="path1-2"
         cx="-135.40843"
         cy="157.77837"
         rx="1.8462962"
         ry="2.9011059"
         transform="rotate(-76.899944)" /><ellipse
         style="fill:none;stroke:#d48500;stroke-width:0.857221;stroke-linejoin:round;stroke-miterlimit:7.6;stroke-dasharray:none;stroke-opacity:1;paint-order:markers stroke fill"
         id="path1-2-6-1"
         cx="-202.18306"
         cy="59.266678"
         rx="1.8462962"
         ry="2.9011059"
         transform="rotate(-110.75664)" /><ellipse
         style="fill:none;stroke:#d48500;stroke-width:0.857221;stroke-linejoin:round;stroke-miterlimit:7.6;stroke-dasharray:none;stroke-opacity:1;paint-order:markers stroke fill"
         id="path1-2-6-1-9"
         cx="-210.62372"
         cy="-14.805791"
         rx="1.8462962"
         ry="2.9011059"
         transform="rotate(-132.12431)" /><ellipse
         style="fill:none;stroke:#d48500;stroke-width:0.857221;stroke-linejoin:round;stroke-miterlimit:7.6;stroke-dasharray:none;stroke-opacity:1;paint-order:markers stroke fill"
         id="path1-2-6-1-9-2"
         cx="-210.72501"
         cy="-10.551736"
         rx="1.8462962"
         ry="2.9011059"
         transform="rotate(-132.12431)" /><ellipse
         style="fill:none;stroke:#d48500;stroke-width:0.857221;stroke-linejoin:round;stroke-miterlimit:7.6;stroke-dasharray:none;stroke-opacity:1;paint-order:markers stroke fill"
         id="path1-2-6-1-9-2-1"
         cx="-211.11794"
         cy="-6.9832058"
         rx="1.8462962"
         ry="2.9011059"
         transform="rotate(-132.12431)" /><ellipse
         style="fill:none;stroke:#d48500;stroke-width:0.857221;stroke-linejoin:round;stroke-miterlimit:7.6;stroke-dasharray:none;stroke-opacity:1;paint-order:markers stroke fill"
         id="path1-2-6-1-9-2-1-2"
         cx="-200.53009"
         cy="-65.141678"
         rx="1.8462962"
         ry="2.9011059"
         transform="rotate(-149.27139)" /><ellipse
         style="fill:none;stroke:#d48500;stroke-width:0.857221;stroke-linejoin:round;stroke-miterlimit:7.6;stroke-dasharray:none;stroke-opacity:1;paint-order:markers stroke fill"
         id="path1-2-6-1-9-2-1-2-1"
         cx="-130.75917"
         cy="-163.89421"
         rx="1.8462962"
         ry="2.9011059"
         transform="rotate(176.40254)" /><ellipse
         style="fill:#d48500;fill-opacity:1;stroke:#d48500;stroke-width:1;stroke-linejoin:round;stroke-miterlimit:7.6;stroke-dasharray:none;stroke-opacity:1;paint-order:markers stroke fill"
         id="path2"
         cx="126.23722"
         cy="172.72594"
         rx="2.3829761"
         ry="2.9434896" /><path
         d="m 126.27426,175.07439 q -0.10865,0 -0.1778,-0.0741 -0.0691,-0.0691 -0.0691,-0.17286 v -0.43956 l 0.11359,0.10866 q -0.34078,-0.01 -0.60748,-0.0889 -0.26177,-0.079 -0.4445,-0.18274 -0.0889,-0.0543 -0.12348,-0.13335 -0.0346,-0.084 -0.0247,-0.16793 0.01,-0.084 0.0593,-0.14322 0.0543,-0.0642 0.13335,-0.079 0.079,-0.0197 0.18273,0.0395 0.13829,0.079 0.36054,0.1531 0.22719,0.0692 0.54328,0.0692 0.24695,0 0.40005,-0.0593 0.15311,-0.0593 0.22225,-0.16298 0.0741,-0.10372 0.0741,-0.23707 0,-0.10866 -0.0494,-0.18768 -0.0494,-0.084 -0.16298,-0.14323 -0.1136,-0.0642 -0.30622,-0.10372 l -0.52352,-0.11359 q -0.44944,-0.0988 -0.67169,-0.33091 -0.22225,-0.23212 -0.22225,-0.60748 0,-0.2914 0.14323,-0.51859 0.14323,-0.23212 0.40005,-0.37041 0.25682,-0.13829 0.60254,-0.16299 l -0.0988,0.0741 v -0.41487 q 0,-0.10372 0.0691,-0.17286 0.0692,-0.0741 0.1778,-0.0741 0.10372,0 0.17286,0.0741 0.0741,0.0691 0.0741,0.17286 v 0.41487 l -0.10372,-0.079 q 0.21237,0.005 0.46426,0.084 0.25682,0.079 0.43956,0.22225 0.0741,0.0593 0.0988,0.13829 0.0247,0.0741 0.005,0.14816 -0.0198,0.0691 -0.0741,0.11854 -0.0543,0.0494 -0.13829,0.0593 -0.079,0.005 -0.18274,-0.0543 -0.14323,-0.084 -0.32103,-0.13336 -0.1778,-0.0543 -0.42474,-0.0543 -0.31609,0 -0.49883,0.14323 -0.1778,0.13828 -0.1778,0.36547 0,0.16793 0.10866,0.27164 0.10865,0.0988 0.37041,0.15805 l 0.53834,0.11853 q 0.47414,0.10372 0.69639,0.33091 0.22225,0.22225 0.22225,0.58773 0,0.28645 -0.14323,0.5087 -0.14323,0.21732 -0.39511,0.35067 -0.24695,0.12841 -0.57785,0.16298 l 0.0938,-0.10372 v 0.4445 q 0,0.10372 -0.0691,0.17286 -0.0691,0.0741 -0.1778,0.0741 z"
         id="text2"
         style="font-weight:bold;font-size:4.9389px;font-family:Nunito;-inkscape-font-specification:'Nunito, Bold';letter-spacing:-0.185208px;fill:#975f00;stroke:#d48500;stroke-linejoin:round;stroke-miterlimit:7.6;paint-order:markers stroke fill"
         aria-label="$" /></g></g></svg>
